<svg xmlns="http://www.w3.org/2000/svg" xmlns:xlink="http://www.w3.org/1999/xlink" width="1920" zoomAndPan="magnify" viewBox="0 0 1440 809.999993" height="1080" preserveAspectRatio="xMidYMid meet" version="1.2"><defs><clipPath id="84d20bf72f"><path d="M 581 233 L 809 233 L 809 571 L 581 571 Z M 581 233 "/></clipPath><clipPath id="6e59c91d97"><path d="M 578.675781 266.167969 L 802.953125 225.132812 L 861.265625 543.84375 L 636.988281 584.878906 Z M 578.675781 266.167969 "/></clipPath><clipPath id="1da88aa115"><path d="M 578.675781 266.167969 L 802.953125 225.132812 L 861.265625 543.84375 L 636.988281 584.878906 Z M 578.675781 266.167969 "/></clipPath></defs><g id="fac73ada94"><g clip-rule="nonzero" clip-path="url(#84d20bf72f)"><g clip-rule="nonzero" clip-path="url(#6e59c91d97)"><g clip-rule="nonzero" clip-path="url(#1da88aa115)"><path style=" stroke:none;fill-rule:evenodd;fill:#de1f55;fill-opacity:1;" d="M 708.636719 242.5625 C 719.253906 240.75 733.449219 238.410156 740.199219 237.429688 C 746.941406 236.410156 755.878906 235.246094 760.035156 234.828125 C 764.191406 234.410156 770.339844 233.882812 773.710938 233.609375 C 777.089844 233.375 782.050781 233.152344 784.742188 233.128906 C 787.433594 233.105469 791.515625 233.214844 793.773438 233.402344 C 796.03125 233.585938 799.082031 234.140625 800.535156 234.601562 C 801.996094 235.105469 803.542969 235.847656 803.972656 236.324219 C 804.394531 236.761719 804.917969 237.519531 805.140625 238.035156 C 805.421875 238.625 805.257812 239.382812 804.613281 240.527344 C 804.128906 241.386719 803.109375 242.597656 802.394531 243.113281 C 801.683594 243.671875 799.578125 244.785156 797.722656 245.636719 C 795.867188 246.488281 794.03125 247.210938 793.621094 247.285156 C 793.246094 247.351562 792.9375 247.539062 792.976562 247.746094 C 793.007812 247.910156 793.648438 248.136719 794.445312 248.289062 C 795.242188 248.441406 796.875 248.957031 798.082031 249.460938 C 799.328125 249.960938 800.992188 251.109375 801.898438 252.097656 C 802.796875 253.046875 803.769531 254.621094 804.085938 255.632812 C 804.492188 256.925781 804.5625 258.242188 804.28125 260.214844 C 804.042969 261.714844 803.417969 264.136719 802.832031 265.613281 C 802.238281 267.046875 801 269.625 800.105469 271.285156 C 799.210938 272.945312 794.335938 279.953125 789.238281 286.917969 C 784.132812 293.839844 778.734375 301.027344 777.195312 302.890625 C 775.652344 304.753906 771.855469 308.785156 768.792969 311.910156 C 765.722656 314.996094 761.785156 319.179688 760.019531 321.214844 C 758.253906 323.25 755.601562 326.511719 754.074219 328.460938 C 752.558594 330.449219 749.269531 335.15625 746.804688 338.984375 C 744.34375 342.8125 738.097656 352.167969 732.992188 359.773438 C 727.882812 367.378906 722.945312 374.996094 722.019531 376.707031 C 721.089844 378.414062 719.929688 381.40625 719.390625 383.386719 C 718.855469 385.367188 718.410156 388.527344 718.367188 390.417969 C 718.320312 393.417969 719.527344 400.722656 727.867188 447.480469 C 733.09375 476.972656 737.886719 503.636719 738.488281 506.691406 C 739.214844 510.191406 740.007812 513.125 740.710938 514.625 C 741.332031 515.921875 742.457031 517.851562 743.28125 518.855469 C 744.070312 519.910156 745.917969 521.582031 747.433594 522.628906 C 749.195312 523.847656 751.34375 524.824219 753.550781 525.445312 C 755.398438 525.960938 758.582031 526.535156 760.625 526.714844 C 762.675781 526.941406 768.453125 526.953125 773.464844 526.761719 C 778.476562 526.574219 785.375 526.421875 788.792969 526.394531 C 792.203125 526.328125 796.332031 526.46875 798.03125 526.628906 C 799.734375 526.832031 802.265625 527.351562 803.761719 527.804688 C 805.222656 528.308594 806.867188 529.117188 807.402344 529.703125 C 807.972656 530.242188 808.507812 531.296875 808.644531 532.042969 C 808.792969 532.871094 808.484375 534.210938 807.855469 535.695312 C 807.28125 536.996094 806.105469 538.75 805.242188 539.636719 C 804.378906 540.523438 801.941406 542.636719 799.769531 544.316406 C 797.605469 546.039062 794.304688 548.351562 792.390625 549.558594 C 790.464844 550.722656 787.160156 552.523438 784.980469 553.480469 C 782.8125 554.472656 779.039062 556.0625 776.640625 556.972656 C 774.242188 557.882812 770.140625 559.316406 767.601562 560.164062 C 764.167969 561.265625 758.859375 562.40625 747.234375 564.535156 C 736.75 566.453125 728.988281 567.65625 723.945312 568.152344 C 719.789062 568.570312 711.726562 569.148438 706.019531 569.507812 C 700.304688 569.828125 693.367188 570.242188 690.566406 570.367188 C 687.265625 570.542969 684.675781 570.417969 683.148438 570.015625 C 681.5625 569.621094 680.488281 569.046875 679.925781 568.296875 C 679.472656 567.695312 678.933594 566.382812 678.757812 565.429688 C 678.570312 564.394531 678.667969 563.050781 679.019531 562.175781 C 679.335938 561.347656 680.21875 560.074219 680.980469 559.335938 C 681.710938 558.644531 683.773438 557.070312 685.566406 555.886719 C 687.367188 554.746094 692.105469 552.125 696.179688 550.097656 C 700.214844 548.074219 704.8125 545.609375 706.386719 544.636719 C 707.960938 543.664062 710.574219 541.816406 712.195312 540.625 C 713.765625 539.394531 716.277344 537.226562 717.722656 535.765625 C 719.125 534.308594 721.160156 531.882812 722.175781 530.417969 C 723.1875 528.949219 724.625 526.289062 725.367188 524.488281 C 726.105469 522.683594 727.089844 519.894531 727.597656 518.21875 C 728.054688 516.511719 728.738281 513.476562 729.085938 511.402344 C 729.394531 509.339844 729.71875 506.199219 729.738281 504.441406 C 729.796875 501.953125 729.15625 497.75 726.957031 485.492188 C 725.371094 476.84375 722.316406 461.539062 720.128906 451.460938 C 717.945312 441.382812 715.8125 432.066406 715.4375 430.722656 C 715.0625 429.382812 713.726562 423.46875 712.4375 417.589844 C 711.105469 411.714844 709.34375 403.957031 708.429688 400.359375 C 707.515625 396.765625 706.363281 392.570312 705.859375 390.996094 C 705.316406 389.425781 704.339844 387.125 703.632812 385.84375 C 702.929688 384.558594 701.355469 382.496094 700.144531 381.261719 C 698.894531 380.039062 694.144531 376.289062 689.511719 372.945312 C 684.882812 369.601562 675.941406 362.8125 669.644531 357.847656 C 663.355469 352.925781 655.03125 346.453125 651.199219 343.519531 C 647.371094 340.585938 640.007812 335.175781 634.886719 331.492188 C 629.734375 327.859375 623.582031 323.214844 621.195312 321.167969 C 618.8125 319.125 615.796875 316.425781 614.488281 315.125 C 613.179688 313.824219 611.050781 311.523438 609.746094 310.007812 C 608.441406 308.492188 606.367188 306.261719 605.082031 305.085938 C 603.742188 303.835938 602.570312 302.339844 602.277344 301.453125 C 601.859375 300.332031 601.925781 299.761719 602.417969 298.945312 C 602.925781 298.210938 603.585938 297.835938 604.957031 297.625 C 605.992188 297.4375 607.90625 297.386719 609.214844 297.53125 C 610.527344 297.675781 614.121094 298.386719 617.203125 299.105469 C 620.292969 299.867188 625.101562 300.910156 627.890625 301.425781 C 630.6875 301.984375 635.933594 302.605469 639.484375 302.855469 C 643.078125 303.097656 649.214844 303.214844 653.210938 303.082031 C 657.207031 302.949219 663.398438 302.671875 667.007812 302.523438 C 670.609375 302.335938 676.246094 302.074219 679.515625 301.945312 C 682.777344 301.777344 692.222656 301.03125 700.503906 300.246094 C 709.660156 299.339844 718.273438 298.277344 722.660156 297.472656 C 726.550781 296.761719 731.96875 295.984375 734.613281 295.714844 C 737.257812 295.445312 740.453125 295.371094 741.636719 295.539062 C 743.050781 295.796875 744.675781 296.480469 746.191406 297.53125 C 747.667969 298.585938 748.777344 299.75 749.320312 300.847656 C 749.746094 301.753906 750.316406 303.703125 750.546875 305.199219 C 750.820312 306.691406 750.921875 308.425781 750.792969 309.132812 C 750.660156 309.796875 750.667969 310.308594 750.875 310.273438 C 751.039062 310.242188 753.253906 308.554688 755.835938 306.542969 C 758.414062 304.488281 762.554688 300.949219 765.09375 298.691406 C 767.621094 296.386719 771.035156 293.070312 772.722656 291.308594 C 774.410156 289.542969 777.832031 285.113281 780.335938 281.488281 C 782.980469 277.714844 785.128906 274.96875 785.480469 275.03125 C 785.753906 275.109375 786.078125 275.480469 786.136719 275.808594 C 786.199219 276.140625 785.46875 277.769531 784.535156 279.4375 C 783.550781 281.074219 781.460938 284.148438 779.882812 286.277344 C 778.304688 288.402344 775.429688 291.839844 773.53125 293.855469 C 771.597656 295.917969 767.742188 299.617188 764.980469 302.046875 C 762.183594 304.527344 757.609375 308.269531 749.65625 314.128906 L 748.132812 318.429688 C 746.976562 321.675781 745.355469 324.753906 741.449219 330.984375 C 738.601562 335.523438 732.25 344.984375 727.339844 352.039062 C 721.207031 360.816406 717.722656 365.386719 716.210938 366.691406 C 715.027344 367.71875 714.007812 368.675781 713.953125 368.859375 C 713.910156 369.082031 712.773438 369.417969 711.492188 369.652344 C 710.167969 369.894531 708.308594 370.019531 707.351562 369.9375 C 706.398438 369.855469 704.429688 369.617188 702.972656 369.371094 C 701.515625 369.125 697.914062 367.902344 694.988281 366.640625 C 692.0625 365.378906 688.207031 363.476562 686.476562 362.425781 C 684.746094 361.371094 681.621094 359.25 679.632812 357.734375 C 677.601562 356.222656 672.933594 352.671875 669.242188 349.796875 C 665.558594 346.964844 659.128906 342.199219 654.9375 339.15625 C 650.753906 336.160156 643.082031 330.464844 637.867188 326.5 C 630.621094 321.027344 627.40625 318.878906 624.171875 317.332031 C 621.878906 316.253906 619.390625 315.042969 618.679688 314.660156 C 617.96875 314.277344 617.285156 314.058594 617.183594 314.207031 C 617.125 314.34375 619.042969 316.175781 621.492188 318.335938 C 623.929688 320.453125 630.882812 325.726562 636.933594 330.050781 C 643.019531 334.324219 652.433594 341.371094 657.921875 345.667969 C 663.414062 349.964844 672.472656 356.945312 678.046875 361.230469 C 683.578125 365.519531 691.109375 371.15625 694.679688 373.839844 C 698.339844 376.546875 702.167969 379.695312 703.265625 381.035156 C 704.5625 382.507812 705.855469 384.664062 706.753906 386.769531 C 707.644531 388.828125 709.15625 393.8125 710.585938 399.539062 C 711.871094 404.691406 713.714844 412.4375 714.636719 416.757812 C 715.554688 421.082031 717.386719 429 718.71875 434.398438 C 720.007812 439.808594 722.300781 449.996094 723.75 457 C 725.246094 463.996094 727.984375 478.71875 729.941406 489.652344 C 731.855469 500.589844 734.074219 513.1875 734.84375 517.621094 C 736.148438 524.992188 736.234375 525.917969 735.742188 528.148438 C 735.472656 529.480469 734.792969 531.613281 734.304688 532.902344 C 733.761719 534.15625 732.214844 536.917969 730.804688 539.015625 C 729.433594 541.105469 727.257812 543.941406 725.972656 545.332031 C 724.679688 546.679688 721.890625 549.199219 719.71875 550.878906 C 717.550781 552.601562 713.972656 555.007812 711.722656 556.277344 C 709.476562 557.542969 705.859375 559.273438 703.671875 560.1875 C 700.53125 561.488281 698.164062 562.09375 692.460938 563.179688 C 686.625 564.246094 684.824219 564.449219 683.144531 564.15625 C 681.121094 563.84375 681.039062 563.859375 680.910156 564.566406 C 680.863281 565.003906 681.089844 565.773438 681.441406 566.308594 C 681.804688 566.882812 682.894531 567.453125 684.191406 567.769531 C 685.359375 568.070312 687.664062 568.289062 689.324219 568.242188 C 690.984375 568.195312 694.285156 568.019531 696.722656 567.789062 C 699.167969 567.597656 704.960938 567.222656 709.609375 566.925781 C 714.269531 566.671875 721.621094 565.96875 726.011719 565.421875 C 730.394531 564.835938 739.992188 563.292969 747.398438 561.9375 C 754.804688 560.582031 762.960938 558.875 765.53125 558.191406 C 768.097656 557.507812 773.011719 555.839844 776.398438 554.492188 C 779.789062 553.144531 784.769531 550.910156 787.464844 549.519531 C 790.425781 547.949219 794.398438 545.339844 797.589844 542.917969 C 800.773438 540.453125 803.417969 538.089844 804.304688 536.855469 C 805.125 535.722656 805.933594 534.292969 806.15625 533.652344 C 806.359375 532.890625 806.320312 532.210938 805.960938 531.636719 C 805.605469 531.101562 804.253906 530.496094 802.183594 529.933594 C 800.386719 529.449219 797.734375 528.992188 796.300781 528.871094 C 794.875 528.789062 791.402344 528.742188 788.589844 528.785156 C 785.773438 528.828125 778.964844 529.007812 773.476562 529.15625 C 767.992188 529.34375 761.824219 529.277344 759.773438 529.054688 C 757.71875 528.832031 754.53125 528.21875 752.6875 527.742188 C 750.304688 527.109375 748.332031 526.144531 746.039062 524.59375 C 743.886719 523.109375 742.238281 521.570312 741.035156 519.910156 C 740.058594 518.546875 738.863281 516.457031 738.390625 515.261719 C 737.828125 513.824219 735.667969 503.1875 732.132812 484.332031 C 729.15625 468.542969 726.292969 452.429688 725.746094 448.507812 C 725.160156 444.597656 722.871094 431.84375 720.601562 420.15625 C 717.589844 404.628906 716.394531 397.621094 716.160156 394.242188 C 715.996094 391.707031 715.964844 388.503906 716.113281 387.195312 C 716.257812 385.886719 716.757812 383.484375 717.230469 381.859375 C 717.703125 380.230469 718.964844 377.308594 720.019531 375.359375 C 721.074219 373.414062 726.636719 364.785156 732.421875 356.199219 C 738.207031 347.613281 744.308594 338.414062 745.96875 335.800781 C 747.628906 333.191406 750.929688 328.566406 753.324219 325.519531 C 755.722656 322.515625 759.097656 318.519531 760.886719 316.609375 C 762.675781 314.699219 765.984375 311.269531 768.257812 308.972656 C 770.539062 306.71875 773.746094 303.222656 775.398438 301.253906 C 777.046875 299.28125 781.9375 292.828125 786.25 286.949219 C 790.5625 281.074219 795.058594 274.777344 796.226562 272.980469 C 797.394531 271.183594 799.046875 268.058594 799.914062 266.019531 C 800.777344 263.980469 801.679688 261.417969 801.902344 260.308594 C 802.164062 258.9375 802.070312 257.714844 801.679688 256.289062 C 801.25 254.871094 800.597656 253.875 799.589844 253.035156 C 798.785156 252.371094 797.039062 251.492188 795.683594 251.097656 C 794.332031 250.703125 792.070312 250.261719 790.640625 250.183594 C 789.125 250.074219 786.183594 250.355469 783.496094 250.847656 C 781.011719 251.300781 778.664062 251.5625 778.34375 251.449219 C 777.984375 251.34375 777.726562 250.878906 777.726562 250.40625 C 777.714844 249.640625 778.144531 249.433594 782.816406 248.320312 C 785.644531 247.632812 790.164062 246.164062 792.914062 245.0625 C 795.65625 243.917969 798.773438 242.492188 799.8125 241.875 C 800.890625 241.207031 802.042969 240.269531 803.082031 238.710938 L 802.097656 237.992188 C 801.550781 237.582031 800.207031 237.011719 799.074219 236.664062 C 797.949219 236.359375 795.5625 235.9375 793.785156 235.792969 C 791.996094 235.609375 788.894531 235.492188 786.882812 235.472656 C 784.878906 235.5 781.253906 235.5625 778.792969 235.671875 C 776.332031 235.78125 769.929688 236.308594 764.582031 236.773438 C 759.203125 237.289062 750.324219 238.3125 744.90625 239.089844 C 739.441406 239.835938 722.695312 242.726562 707.664062 245.433594 C 686.105469 249.378906 676.414062 251.324219 661.6875 254.746094 C 651.425781 257.09375 637.328125 260.441406 630.335938 262.191406 C 623.339844 263.941406 615.378906 266 612.5625 266.726562 C 609.75 267.5 605.199219 268.800781 602.414062 269.695312 C 599.617188 270.550781 595.410156 272.089844 592.992188 273.128906 C 590.566406 274.128906 587.792969 275.578125 586.726562 276.285156 C 585.707031 277.027344 584.5625 278.007812 584.257812 278.449219 C 583.910156 278.898438 583.710938 279.660156 583.792969 280.117188 C 583.875 280.570312 584.574219 281.34375 585.308594 281.847656 C 586.050781 282.398438 587.84375 283.09375 589.242188 283.480469 C 590.644531 283.910156 593.507812 284.367188 595.640625 284.578125 C 597.734375 284.792969 601.75 285 604.578125 285.039062 C 607.414062 285.117188 613.722656 284.988281 618.648438 284.816406 C 623.578125 284.640625 629.46875 284.332031 631.78125 284.121094 C 634.101562 283.953125 639.589844 283.335938 643.941406 282.796875 C 648.28125 282.214844 656.574219 281.039062 662.269531 280.128906 C 668.007812 279.246094 681.351562 276.679688 692.015625 274.429688 C 702.679688 272.175781 711.808594 270.421875 712.371094 270.445312 C 712.980469 270.507812 713.335938 270.824219 713.332031 271.253906 C 713.347656 271.808594 712.863281 272.195312 711.574219 272.644531 C 710.5625 272.957031 698.328125 275.496094 684.371094 278.222656 C 666.53125 281.699219 655.800781 283.578125 648.332031 284.601562 C 642.488281 285.371094 634.949219 286.238281 631.578125 286.511719 C 628.207031 286.785156 622.234375 287.109375 618.238281 287.242188 C 614.242188 287.375 608.144531 287.464844 604.582031 287.390625 C 601.066406 287.347656 596.796875 287.144531 595.097656 286.984375 C 593.394531 286.785156 591.066406 286.441406 589.816406 286.15625 C 588.613281 285.90625 586.710938 285.3125 585.636719 284.824219 C 584.53125 284.386719 583.160156 283.4375 582.570312 282.777344 C 581.984375 282.15625 581.414062 281.148438 581.308594 280.570312 C 581.203125 279.992188 581.34375 278.894531 581.636719 278.160156 C 581.921875 277.378906 583.167969 275.996094 584.394531 275.003906 C 585.699219 273.949219 588.339844 272.484375 590.957031 271.363281 C 593.375 270.324219 598.148438 268.59375 601.582031 267.496094 C 605.015625 266.398438 611.890625 264.457031 616.835938 263.207031 C 621.773438 261.917969 630.152344 259.789062 635.429688 258.480469 C 640.707031 257.171875 651.863281 254.574219 660.234375 252.660156 C 668.609375 250.742188 678.539062 248.453125 682.390625 247.535156 C 686.242188 246.617188 698.027344 244.417969 708.636719 242.5625 Z M 604.613281 301.109375 C 604.835938 301.410156 606.40625 302.964844 608.144531 304.527344 C 609.882812 306.089844 612.816406 308.332031 614.648438 309.453125 C 616.484375 310.613281 619.917969 312.550781 622.234375 313.753906 C 624.582031 314.90625 628.769531 316.746094 631.523438 317.78125 C 634.328125 318.851562 639.417969 320.488281 642.890625 321.476562 C 646.367188 322.464844 651.675781 323.675781 654.71875 324.1875 C 657.757812 324.65625 664.550781 325.554688 669.835938 326.167969 C 675.125 326.785156 682.085938 327.433594 685.289062 327.660156 C 688.496094 327.886719 693.75 328.078125 696.925781 328.140625 C 701.035156 328.15625 704.703125 327.871094 709.566406 327.109375 C 713.570312 326.550781 718.386719 325.539062 721.105469 324.742188 C 723.660156 323.976562 727.128906 322.828125 728.765625 322.1875 C 730.394531 321.503906 733.785156 319.941406 736.253906 318.71875 C 738.71875 317.457031 742.296875 315.519531 744.191406 314.402344 C 747.546875 312.421875 747.648438 312.273438 748.109375 310.351562 C 748.375 309.234375 748.503906 307.371094 748.425781 306.230469 C 748.308594 304.882812 747.859375 303.382812 747.148438 302.058594 C 746.414062 300.609375 745.617188 299.773438 744.335938 299.066406 C 743.34375 298.5625 741.570312 297.992188 740.34375 297.828125 C 738.589844 297.59375 735.492188 297.949219 725.257812 299.519531 C 716.863281 300.84375 707.328125 302.03125 697.867188 302.90625 C 689.878906 303.640625 679.453125 304.394531 674.648438 304.546875 C 669.851562 304.742188 662.808594 305.046875 658.957031 305.28125 C 655.101562 305.472656 649.957031 305.644531 647.476562 305.628906 C 644.992188 305.609375 640.851562 305.425781 638.207031 305.226562 C 635.605469 305.019531 631.542969 304.566406 629.25 304.171875 C 626.953125 303.78125 622.058594 302.75 618.351562 301.890625 C 614.695312 301.0625 610.304688 300.199219 608.597656 299.996094 C 606.894531 299.796875 605.335938 299.695312 605.085938 299.742188 C 604.839844 299.785156 604.574219 299.964844 604.4375 300.160156 C 604.351562 300.386719 604.425781 300.800781 604.613281 301.109375 Z M 643.316406 327.769531 C 646.773438 330.300781 652.929688 334.734375 656.972656 337.671875 C 661.058594 340.605469 668.296875 346.035156 673.121094 349.730469 C 677.945312 353.421875 683.628906 357.601562 685.730469 359.054688 C 687.871094 360.460938 691.910156 362.671875 694.710938 363.953125 C 697.832031 365.351562 701.210938 366.527344 703.375 366.902344 C 705.324219 367.273438 707.945312 367.5625 709.183594 367.550781 C 711.269531 367.511719 711.550781 367.417969 713.511719 365.730469 C 714.707031 364.785156 717.042969 362.136719 718.78125 359.9375 C 720.464844 357.703125 725.941406 349.988281 730.859375 342.757812 C 735.78125 335.527344 740.800781 327.894531 741.996094 325.796875 C 743.195312 323.695312 744.628906 320.78125 745.171875 319.3125 C 745.726562 317.886719 746.09375 316.621094 746.027344 316.503906 C 745.929688 316.4375 744.316406 317.203125 742.378906 318.285156 C 740.429688 319.324219 736.59375 321.265625 733.757812 322.597656 C 730.957031 323.878906 726.894531 325.523438 724.796875 326.207031 C 722.65625 326.894531 717.28125 328.136719 712.6875 328.976562 C 706.769531 330.058594 703.171875 330.503906 700.136719 330.503906 C 697.792969 330.546875 693.246094 330.480469 690.058594 330.335938 C 686.875 330.234375 680.539062 329.726562 675.964844 329.28125 C 671.386719 328.792969 664.617188 328.023438 660.886719 327.507812 C 657.15625 326.992188 652.136719 326.199219 649.785156 325.730469 C 647.382812 325.230469 643.628906 324.335938 641.371094 323.679688 C 639.152344 323.015625 637.222656 322.511719 637.097656 322.535156 C 636.972656 322.558594 636.914062 322.699219 636.945312 322.863281 C 637.023438 323.0625 639.859375 325.238281 643.316406 327.769531 Z M 730.886719 514.921875 C 730.660156 516.035156 729.996094 518.464844 729.394531 520.328125 C 728.792969 522.191406 727.765625 524.988281 727.105469 526.519531 C 726.445312 528.050781 724.949219 530.636719 723.835938 532.25 C 722.679688 533.875 720.390625 536.558594 718.679688 538.195312 C 716.960938 539.792969 714.492188 541.957031 713.140625 542.972656 C 711.785156 543.992188 709.15625 545.753906 707.238281 546.960938 C 705.316406 548.125 701.027344 550.40625 697.691406 552.042969 C 694.355469 553.679688 690.078125 556.003906 688.152344 557.167969 C 686.269531 558.324219 684.105469 559.832031 683.410156 560.472656 L 682.128906 561.648438 C 685.5 561.84375 688.816406 561.492188 691.753906 560.957031 C 695.261719 560.34375 698.527344 559.488281 701.546875 558.394531 C 703.988281 557.476562 707.582031 555.835938 709.519531 554.753906 C 711.453125 553.632812 714.515625 551.660156 716.410156 550.332031 C 718.304688 549 721.332031 546.394531 723.21875 544.550781 C 725.207031 542.5625 727.753906 539.402344 729.285156 537.027344 C 731.046875 534.265625 732.191406 531.875 732.789062 529.757812 C 733.460938 527.367188 733.59375 525.761719 733.351562 523.027344 C 733.203125 521.042969 732.683594 517.972656 732.183594 516.183594 L 731.332031 512.917969 Z M 730.886719 514.921875 "/></g></g></g></g></svg>