<svg xmlns="http://www.w3.org/2000/svg" xmlns:xlink="http://www.w3.org/1999/xlink" width="1920" zoomAndPan="magnify" viewBox="0 0 1440 809.999993" height="1080" preserveAspectRatio="xMidYMid meet" version="1.2"><defs><clipPath id="e54270612d"><path d="M 619 231 L 864 231 L 864 568 L 619 568 Z M 619 231 "/></clipPath><clipPath id="6a4325aa5e"><path d="M 643.554688 222.234375 L 866.199219 271.363281 L 796.382812 587.753906 L 573.742188 538.625 Z M 643.554688 222.234375 "/></clipPath><clipPath id="3f1710f7b5"><path d="M 643.554688 222.234375 L 866.199219 271.363281 L 796.382812 587.753906 L 573.742188 538.625 Z M 643.554688 222.234375 "/></clipPath></defs><g id="2f9a9f4e3a"><g clip-rule="nonzero" clip-path="url(#e54270612d)"><g clip-rule="nonzero" clip-path="url(#6a4325aa5e)"><g clip-rule="nonzero" clip-path="url(#3f1710f7b5)"><path style=" stroke:none;fill-rule:evenodd;fill:#9c9851;fill-opacity:1;" d="M 772.503906 250.863281 C 782.992188 253.308594 796.988281 256.652344 803.585938 258.367188 C 810.195312 260.042969 818.886719 262.433594 822.882812 263.660156 C 826.875 264.886719 832.746094 266.785156 835.960938 267.839844 C 839.164062 268.933594 843.824219 270.652344 846.3125 271.675781 C 848.800781 272.695312 852.523438 274.378906 854.53125 275.425781 C 856.542969 276.472656 859.140625 278.164062 860.300781 279.152344 C 861.453125 280.183594 862.589844 281.46875 862.800781 282.074219 C 863.019531 282.640625 863.210938 283.542969 863.214844 284.105469 C 863.242188 284.757812 862.800781 285.390625 861.761719 286.195312 C 860.984375 286.800781 859.574219 287.523438 858.710938 287.722656 C 857.839844 287.960938 855.46875 288.167969 853.429688 288.234375 C 851.390625 288.300781 849.417969 288.253906 849.007812 288.164062 C 848.636719 288.082031 848.28125 288.132812 848.238281 288.339844 C 848.199219 288.503906 848.703125 288.957031 849.378906 289.410156 C 850.054688 289.859375 851.363281 290.96875 852.277344 291.902344 C 853.230469 292.84375 854.320312 294.546875 854.773438 295.8125 C 855.234375 297.035156 855.519531 298.863281 855.417969 299.917969 C 855.292969 301.269531 854.847656 302.503906 853.824219 304.21875 C 853.019531 305.503906 851.503906 307.496094 850.394531 308.628906 C 849.289062 309.722656 847.148438 311.621094 845.683594 312.804688 C 844.214844 313.988281 837.003906 318.554688 829.605469 322.996094 C 822.214844 327.398438 814.449219 331.929688 812.308594 333.050781 C 810.164062 334.171875 805.105469 336.417969 801.070312 338.109375 C 797.042969 339.765625 791.789062 342.09375 789.371094 343.285156 C 786.957031 344.472656 783.246094 346.457031 781.085938 347.660156 C 778.914062 348.902344 774.058594 351.96875 770.304688 354.542969 C 766.546875 357.117188 757.167969 363.316406 749.507812 368.347656 C 741.851562 373.378906 734.347656 378.484375 732.832031 379.703125 C 731.3125 380.917969 729.082031 383.226562 727.820312 384.84375 C 726.558594 386.460938 724.917969 389.199219 724.152344 390.925781 C 722.941406 393.675781 721.222656 400.875 710.785156 447.207031 C 704.164062 476.421875 698.246094 502.855469 697.617188 505.90625 C 696.929688 509.414062 696.523438 512.425781 696.589844 514.078125 C 696.660156 515.515625 696.945312 517.734375 697.316406 518.976562 C 697.636719 520.253906 698.691406 522.511719 699.683594 524.066406 C 700.835938 525.871094 702.433594 527.601562 704.230469 529.03125 C 705.734375 530.226562 708.445312 531.988281 710.257812 532.949219 C 712.0625 533.949219 717.382812 536.199219 722.074219 537.96875 C 726.769531 539.734375 733.1875 542.273438 736.347656 543.574219 C 739.515625 544.832031 743.269531 546.5625 744.769531 547.371094 C 746.261719 548.214844 748.394531 549.675781 749.597656 550.675781 C 750.75 551.703125 751.953125 553.089844 752.21875 553.835938 C 752.53125 554.554688 752.617188 555.734375 752.453125 556.472656 C 752.273438 557.296875 751.464844 558.410156 750.3125 559.535156 C 749.28125 560.511719 747.515625 561.675781 746.375 562.15625 C 745.234375 562.636719 742.171875 563.640625 739.515625 564.347656 C 736.851562 565.09375 732.917969 565.949219 730.679688 566.316406 C 728.457031 566.644531 724.710938 567.023438 722.332031 567.058594 C 719.945312 567.136719 715.855469 567.136719 713.289062 567.046875 C 710.726562 566.953125 706.390625 566.6875 703.71875 566.484375 C 700.128906 566.167969 694.792969 565.160156 683.25 562.613281 C 672.84375 560.316406 665.222656 558.421875 660.382812 556.921875 C 656.386719 555.695312 648.734375 553.101562 643.332031 551.222656 C 637.941406 549.300781 631.386719 546.992188 628.753906 546.023438 C 625.640625 544.90625 623.304688 543.785156 622.054688 542.820312 C 620.746094 541.84375 619.976562 540.898438 619.75 539.984375 C 619.566406 539.257812 619.578125 537.835938 619.785156 536.894531 C 620.011719 535.867188 620.621094 534.664062 621.285156 533.992188 C 621.902344 533.351562 623.207031 532.519531 624.195312 532.136719 C 625.132812 531.785156 627.648438 531.132812 629.757812 530.738281 C 631.863281 530.382812 637.246094 529.804688 641.789062 529.515625 C 646.292969 529.214844 651.484375 528.722656 653.3125 528.4375 C 655.144531 528.152344 658.265625 527.464844 660.222656 526.992188 C 662.148438 526.46875 665.304688 525.441406 667.203125 524.652344 C 669.058594 523.855469 671.875 522.410156 673.378906 521.449219 C 674.882812 520.488281 677.238281 518.597656 678.621094 517.222656 C 680 515.847656 681.992188 513.65625 683.105469 512.308594 C 684.191406 510.914062 686 508.382812 687.121094 506.605469 C 688.207031 504.820312 689.722656 502.050781 690.421875 500.441406 C 691.441406 498.167969 692.480469 494.046875 695.203125 481.894531 C 697.097656 473.308594 700.214844 458.015625 702.105469 447.878906 C 704 437.742188 705.644531 428.328125 705.820312 426.945312 C 705.996094 425.5625 707.054688 419.589844 708.148438 413.671875 C 709.195312 407.742188 710.582031 399.90625 711.132812 396.238281 C 711.683594 392.566406 712.246094 388.253906 712.394531 386.609375 C 712.503906 384.953125 712.492188 382.453125 712.339844 380.996094 C 712.1875 379.539062 711.535156 377.027344 710.898438 375.421875 C 710.222656 373.808594 707.300781 368.511719 704.324219 363.632812 C 701.351562 358.753906 695.746094 349.03125 691.863281 342.015625 C 687.976562 335.039062 682.8125 325.84375 680.417969 321.65625 C 678.027344 317.464844 673.335938 309.625 670.042969 304.246094 C 666.699219 298.898438 662.832031 292.230469 661.425781 289.421875 C 660.019531 286.613281 658.285156 282.953125 657.585938 281.25 C 656.886719 279.542969 655.8125 276.59375 655.199219 274.691406 C 654.585938 272.789062 653.535156 269.929688 652.808594 268.347656 C 652.054688 266.675781 651.554688 264.839844 651.632812 263.910156 C 651.679688 262.714844 651.964844 262.21875 652.734375 261.65625 C 653.484375 261.175781 654.238281 261.082031 655.585938 261.421875 C 656.613281 261.648438 658.398438 262.34375 659.546875 262.988281 C 660.699219 263.628906 663.734375 265.675781 666.296875 267.535156 C 668.851562 269.433594 672.878906 272.261719 675.25 273.816406 C 677.613281 275.414062 682.207031 278.023438 685.382812 279.628906 C 688.601562 281.246094 694.214844 283.730469 697.949219 285.160156 C 701.683594 286.585938 707.5 288.730469 710.882812 289.996094 C 714.273438 291.214844 719.574219 293.160156 722.636719 294.3125 C 725.710938 295.421875 734.703125 298.394531 742.640625 300.878906 C 751.433594 303.59375 759.785156 305.953125 764.140625 306.914062 C 768.003906 307.769531 773.296875 309.152344 775.839844 309.929688 C 778.382812 310.703125 781.355469 311.878906 782.382812 312.492188 C 783.589844 313.273438 784.816406 314.535156 785.808594 316.089844 C 786.761719 317.636719 787.332031 319.140625 787.410156 320.363281 C 787.445312 321.363281 787.214844 323.378906 786.847656 324.851562 C 786.523438 326.328125 785.945312 327.96875 785.554688 328.570312 C 785.171875 329.132812 784.980469 329.605469 785.1875 329.652344 C 785.351562 329.6875 788.046875 328.992188 791.207031 328.136719 C 794.375 327.242188 799.566406 325.589844 802.78125 324.488281 C 806.007812 323.347656 810.4375 321.613281 812.675781 320.640625 C 814.917969 319.671875 819.789062 316.910156 823.5 314.542969 C 827.402344 312.085938 830.449219 310.390625 830.75 310.585938 C 830.96875 310.761719 831.125 311.226562 831.050781 311.558594 C 830.980469 311.886719 829.675781 313.105469 828.167969 314.28125 C 826.628906 315.40625 823.507812 317.429688 821.230469 318.78125 C 818.949219 320.128906 814.964844 322.179688 812.433594 323.300781 C 809.855469 324.457031 804.867188 326.371094 801.375 327.539062 C 797.835938 328.738281 792.167969 330.417969 782.566406 332.738281 L 779.496094 336.109375 C 777.167969 338.652344 774.484375 340.859375 768.46875 345.089844 C 764.085938 348.171875 754.5625 354.429688 747.300781 359.027344 C 738.242188 364.742188 733.257812 367.605469 731.359375 368.21875 C 729.871094 368.710938 728.558594 369.195312 728.441406 369.34375 C 728.3125 369.527344 727.132812 369.398438 725.859375 369.117188 C 724.546875 368.828125 722.785156 368.222656 721.933594 367.777344 C 721.085938 367.332031 719.363281 366.347656 718.117188 365.554688 C 716.871094 364.765625 714.023438 362.242188 711.816406 359.945312 C 709.609375 357.648438 706.792969 354.398438 705.605469 352.757812 C 704.417969 351.117188 702.359375 347.949219 701.113281 345.78125 C 699.828125 343.601562 696.902344 338.515625 694.613281 334.4375 C 692.316406 330.398438 688.238281 323.507812 685.550781 319.082031 C 682.859375 314.699219 677.996094 306.472656 674.726562 300.796875 C 670.167969 292.941406 668.039062 289.714844 665.65625 287.035156 C 663.960938 285.15625 662.136719 283.074219 661.628906 282.445312 C 661.121094 281.816406 660.578125 281.351562 660.429688 281.445312 C 660.320312 281.550781 661.375 283.980469 662.796875 286.921875 C 664.222656 289.820312 668.585938 297.375 672.488281 303.707031 C 676.441406 310.007812 682.386719 320.152344 685.78125 326.242188 C 689.175781 332.332031 694.820312 342.28125 698.296875 348.390625 C 701.734375 354.488281 706.492188 362.601562 708.742188 366.460938 C 711.066406 370.375 713.371094 374.761719 713.867188 376.421875 C 714.492188 378.28125 714.847656 380.773438 714.859375 383.058594 C 714.878906 385.304688 714.339844 390.484375 713.441406 396.316406 C 712.628906 401.566406 711.324219 409.417969 710.496094 413.757812 C 709.667969 418.101562 708.289062 426.109375 707.421875 431.605469 C 706.511719 437.089844 704.675781 447.367188 703.296875 454.386719 C 701.960938 461.417969 698.777344 476.050781 696.34375 486.886719 C 693.867188 497.710938 691.03125 510.179688 690.019531 514.566406 C 688.363281 521.871094 688.082031 522.757812 686.765625 524.621094 C 686 525.742188 684.546875 527.445312 683.597656 528.441406 C 682.613281 529.390625 680.113281 531.335938 678 532.722656 C 675.925781 534.117188 672.820312 535.886719 671.097656 536.671875 C 669.382812 537.410156 665.835938 538.652344 663.179688 539.359375 C 660.515625 540.109375 656.285156 540.941406 653.71875 541.234375 C 651.15625 541.53125 647.152344 541.726562 644.78125 541.71875 C 641.382812 541.703125 638.964844 541.339844 633.285156 540.128906 C 627.496094 538.851562 625.753906 538.339844 624.320312 537.417969 C 622.578125 536.34375 622.496094 536.328125 622.101562 536.929688 C 621.890625 537.3125 621.800781 538.113281 621.917969 538.742188 C 622.03125 539.414062 622.8125 540.359375 623.882812 541.15625 C 624.84375 541.886719 626.886719 542.984375 628.433594 543.582031 C 629.980469 544.183594 633.09375 545.300781 635.429688 546.03125 C 637.757812 546.804688 643.242188 548.703125 647.644531 550.234375 C 652.035156 551.804688 659.085938 554.007812 663.347656 555.207031 C 667.613281 556.363281 677.058594 558.664062 684.410156 560.285156 C 691.761719 561.90625 699.941406 563.496094 702.574219 563.863281 C 705.207031 564.230469 710.382812 564.59375 714.03125 564.667969 C 717.675781 564.738281 723.132812 564.609375 726.15625 564.371094 C 729.496094 564.074219 734.167969 563.210938 738.046875 562.214844 C 741.9375 561.175781 745.296875 560.019531 746.589844 559.230469 C 747.785156 558.503906 749.082031 557.496094 749.539062 556.996094 C 750.023438 556.367188 750.25 555.730469 750.136719 555.058594 C 750.019531 554.429688 749.007812 553.34375 747.320312 552.023438 C 745.847656 550.882812 743.582031 549.433594 742.308594 548.765625 C 741.023438 548.136719 737.84375 546.746094 735.230469 545.695312 C 732.621094 544.644531 726.273438 542.167969 721.15625 540.175781 C 716.03125 538.226562 710.367188 535.773438 708.5625 534.769531 C 706.761719 533.769531 704.058594 531.96875 702.542969 530.816406 C 700.59375 529.308594 699.148438 527.652344 697.636719 525.339844 C 696.226562 523.132812 695.304688 521.074219 694.839844 519.078125 C 694.46875 517.445312 694.175781 515.054688 694.203125 513.765625 C 694.238281 512.226562 696.375 501.582031 700.425781 482.832031 C 703.804688 467.121094 707.414062 451.160156 708.429688 447.335938 C 709.40625 443.5 712.238281 430.859375 714.679688 419.207031 C 717.921875 403.722656 719.539062 396.800781 720.632812 393.59375 C 721.464844 391.195312 722.675781 388.230469 723.320312 387.082031 C 723.960938 385.929688 725.355469 383.910156 726.417969 382.59375 C 727.484375 381.28125 729.78125 379.070312 731.507812 377.6875 C 733.234375 376.300781 741.710938 370.503906 750.371094 364.832031 C 759.03125 359.164062 768.21875 353.046875 770.765625 351.285156 C 773.308594 349.519531 778.144531 346.535156 781.53125 344.65625 C 784.910156 342.816406 789.570312 340.441406 791.957031 339.375 C 794.347656 338.308594 798.726562 336.429688 801.710938 335.195312 C 804.691406 334 809.003906 332.023438 811.289062 330.84375 C 813.570312 329.667969 820.582031 325.617188 826.835938 321.871094 C 833.09375 318.125 839.675781 314.0625 841.449219 312.859375 C 843.222656 311.65625 845.953125 309.417969 847.546875 307.871094 C 849.136719 306.328125 850.957031 304.316406 851.59375 303.382812 C 852.367188 302.21875 852.753906 301.054688 852.949219 299.589844 C 853.101562 298.113281 852.886719 296.945312 852.28125 295.777344 C 851.796875 294.855469 850.53125 293.367188 849.433594 292.480469 C 848.335938 291.59375 846.425781 290.308594 845.140625 289.679688 C 843.785156 288.992188 840.964844 288.113281 838.292969 287.523438 C 835.828125 286.980469 833.566406 286.308594 833.3125 286.078125 C 833.019531 285.84375 832.964844 285.3125 833.148438 284.878906 C 833.433594 284.167969 833.914062 284.144531 838.648438 284.929688 C 841.519531 285.390625 846.257812 285.792969 849.21875 285.839844 C 852.1875 285.851562 855.617188 285.746094 856.816406 285.578125 C 858.066406 285.382812 859.492188 284.964844 861.054688 283.929688 L 860.425781 282.886719 C 860.082031 282.292969 859.0625 281.25 858.152344 280.488281 C 857.234375 279.769531 855.199219 278.460938 853.613281 277.636719 C 852.039062 276.769531 849.226562 275.460938 847.378906 274.664062 C 845.519531 273.910156 842.152344 272.566406 839.84375 271.710938 C 837.535156 270.855469 831.425781 268.863281 826.316406 267.21875 C 821.160156 265.605469 812.578125 263.109375 807.28125 261.726562 C 801.957031 260.292969 785.398438 256.464844 770.496094 253.132812 C 749.09375 248.410156 739.402344 246.445312 724.5 243.890625 C 714.132812 242.078125 699.839844 239.699219 692.714844 238.597656 C 685.589844 237.5 677.453125 236.308594 674.574219 235.890625 C 671.683594 235.507812 666.984375 234.945312 664.066406 234.691406 C 661.160156 234.394531 656.683594 234.179688 654.050781 234.203125 C 651.429688 234.183594 648.3125 234.445312 647.054688 234.683594 C 645.828125 234.972656 644.390625 235.433594 643.9375 235.71875 C 643.445312 236 642.964844 236.625 642.863281 237.078125 C 642.765625 237.527344 643.109375 238.507812 643.589844 239.261719 C 644.058594 240.054688 645.445312 241.394531 646.582031 242.289062 C 647.710938 243.230469 650.171875 244.761719 652.058594 245.78125 C 653.902344 246.792969 657.523438 248.539062 660.117188 249.671875 C 662.699219 250.84375 668.5625 253.171875 673.171875 254.921875 C 677.785156 256.671875 683.332031 258.671875 685.546875 259.375 C 687.75 260.121094 693.050781 261.675781 697.269531 262.867188 C 701.496094 264.015625 709.597656 266.148438 715.195312 267.511719 C 720.828125 268.925781 734.125 271.730469 744.828125 273.792969 C 755.53125 275.851562 764.628906 277.773438 765.132812 278.015625 C 765.671875 278.304688 765.878906 278.738281 765.707031 279.132812 C 765.507812 279.648438 764.910156 279.816406 763.546875 279.730469 C 762.496094 279.628906 750.230469 277.222656 736.308594 274.324219 C 718.519531 270.613281 707.898438 268.183594 700.617188 266.234375 C 694.929688 264.675781 687.644531 262.550781 684.429688 261.5 C 681.21875 260.445312 675.589844 258.425781 671.855469 257 C 668.121094 255.574219 662.460938 253.289062 659.207031 251.839844 C 655.984375 250.441406 652.125 248.597656 650.625 247.792969 C 649.128906 246.945312 647.117188 245.726562 646.074219 244.980469 C 645.066406 244.28125 643.539062 243 642.738281 242.132812 C 641.890625 241.296875 640.992188 239.894531 640.703125 239.054688 C 640.40625 238.257812 640.273438 237.109375 640.398438 236.53125 C 640.527344 235.957031 641.082031 235.003906 641.636719 234.4375 C 642.203125 233.828125 643.886719 233.035156 645.402344 232.597656 C 647.011719 232.132812 650.015625 231.804688 652.863281 231.789062 C 655.496094 231.765625 660.566406 232.023438 664.15625 232.339844 C 667.746094 232.660156 674.835938 233.535156 679.878906 234.300781 C 684.929688 235.027344 693.476562 236.3125 698.847656 237.152344 C 704.222656 237.992188 715.511719 239.925781 723.972656 241.40625 C 732.433594 242.882812 742.476562 244.625 746.382812 245.273438 C 750.289062 245.917969 762.003906 248.460938 772.503906 250.863281 Z M 653.914062 264.5 C 654.007812 264.867188 654.847656 266.902344 655.847656 269.019531 C 656.84375 271.136719 658.679688 274.339844 659.933594 276.082031 C 661.175781 277.863281 663.589844 280.980469 665.257812 282.984375 C 666.976562 284.957031 670.121094 288.28125 672.257812 290.304688 C 674.429688 292.375 678.488281 295.855469 681.304688 298.113281 C 684.125 300.375 688.550781 303.546875 691.15625 305.199219 C 693.773438 306.8125 699.6875 310.269531 704.324219 312.886719 C 708.957031 315.503906 715.121094 318.800781 717.992188 320.253906 C 720.859375 321.703125 725.625 323.917969 728.527344 325.207031 C 732.308594 326.816406 735.800781 327.972656 740.582031 329.15625 C 744.488281 330.191406 749.320312 331.128906 752.136719 331.449219 C 754.789062 331.734375 758.429688 332.019531 760.1875 332.0625 C 761.953125 332.0625 765.683594 331.941406 768.433594 331.773438 C 771.195312 331.5625 775.246094 331.164062 777.421875 330.867188 C 781.285156 330.34375 781.4375 330.246094 782.605469 328.652344 C 783.285156 327.726562 784.128906 326.058594 784.496094 324.976562 C 784.910156 323.691406 785.078125 322.132812 784.9375 320.636719 C 784.820312 319.015625 784.410156 317.9375 783.503906 316.789062 C 782.785156 315.941406 781.371094 314.722656 780.304688 314.101562 C 778.777344 313.203125 775.785156 312.328125 765.742188 309.8125 C 757.488281 307.773438 748.242188 305.171875 739.179688 302.3125 C 731.53125 299.890625 721.628906 296.542969 717.140625 294.820312 C 712.644531 293.140625 706.035156 290.691406 702.394531 289.414062 C 698.765625 288.097656 693.957031 286.261719 691.675781 285.28125 C 689.390625 284.304688 685.648438 282.53125 683.289062 281.320312 C 680.96875 280.121094 677.402344 278.125 675.4375 276.875 C 673.472656 275.621094 669.363281 272.777344 666.28125 270.546875 C 663.230469 268.363281 659.515625 265.867188 658.023438 265.019531 C 656.527344 264.171875 655.132812 263.476562 654.886719 263.421875 C 654.640625 263.367188 654.324219 263.425781 654.125 263.554688 C 653.953125 263.734375 653.863281 264.144531 653.914062 264.5 Z M 679.257812 304.082031 C 681.460938 307.753906 685.417969 314.230469 688.007812 318.503906 C 690.636719 322.789062 695.203125 330.601562 698.214844 335.878906 C 701.230469 341.152344 704.847656 347.207031 706.226562 349.363281 C 707.652344 351.488281 710.519531 355.089844 712.601562 357.359375 C 714.9375 359.859375 717.597656 362.253906 719.445312 363.4375 C 721.101562 364.535156 723.402344 365.816406 724.546875 366.285156 C 726.488281 367.058594 726.785156 367.082031 729.242188 366.289062 C 730.710938 365.878906 733.894531 364.34375 736.347656 362.988281 C 738.765625 361.582031 746.804688 356.59375 754.144531 351.835938 C 761.480469 347.082031 769.066406 341.992188 770.984375 340.519531 C 772.902344 339.046875 775.355469 336.917969 776.425781 335.773438 C 777.488281 334.675781 778.316406 333.652344 778.300781 333.519531 C 778.238281 333.417969 776.453125 333.5 774.246094 333.742188 C 772.046875 333.949219 767.757812 334.25 764.628906 334.378906 C 761.550781 334.472656 757.167969 334.414062 754.96875 334.226562 C 752.730469 334.035156 747.292969 333.09375 742.734375 332.089844 C 736.859375 330.792969 733.371094 329.808594 730.574219 328.628906 C 728.394531 327.761719 724.230469 325.9375 721.347656 324.570312 C 718.453125 323.242188 712.808594 320.316406 708.765625 318.132812 C 704.734375 315.90625 698.792969 312.570312 695.554688 310.648438 C 692.316406 308.730469 687.996094 306.054688 686.011719 304.710938 C 683.992188 303.316406 680.875 301.035156 679.046875 299.554688 C 677.261719 298.085938 675.675781 296.871094 675.554688 296.84375 C 675.429688 296.820312 675.320312 296.921875 675.285156 297.085938 C 675.28125 297.300781 677.050781 300.40625 679.257812 304.082031 Z M 687.417969 510.546875 C 686.777344 511.484375 685.222656 513.464844 683.945312 514.949219 C 682.671875 516.433594 680.640625 518.613281 679.4375 519.769531 C 678.234375 520.925781 675.855469 522.730469 674.199219 523.785156 C 672.503906 524.832031 669.351562 526.421875 667.140625 527.269531 C 664.9375 528.074219 661.824219 529.109375 660.183594 529.523438 C 658.539062 529.9375 655.433594 530.542969 653.199219 530.910156 C 650.972656 531.238281 646.136719 531.679688 642.425781 531.894531 C 638.71875 532.109375 633.875 532.59375 631.648438 532.917969 C 629.460938 533.253906 626.886719 533.808594 625.996094 534.128906 L 624.359375 534.714844 C 627.390625 536.203125 630.582031 537.164062 633.496094 537.808594 C 636.96875 538.601562 640.308594 539.082031 643.519531 539.242188 C 646.125 539.34375 650.070312 539.226562 652.28125 538.980469 C 654.496094 538.695312 658.082031 538.0625 660.34375 537.570312 C 662.605469 537.078125 666.410156 535.851562 668.863281 534.886719 C 671.46875 533.824219 675.039062 531.894531 677.371094 530.300781 C 680.066406 528.441406 682.046875 526.679688 683.417969 524.957031 C 684.964844 523.015625 685.710938 521.585938 686.546875 518.972656 C 687.179688 517.085938 687.890625 514.054688 688.125 512.210938 L 688.605469 508.871094 Z M 687.417969 510.546875 "/></g></g></g></g></svg>