<svg xmlns="http://www.w3.org/2000/svg" xmlns:xlink="http://www.w3.org/1999/xlink" width="1920" zoomAndPan="magnify" viewBox="0 0 1440 809.999993" height="1080" preserveAspectRatio="xMidYMid meet" version="1.2"><defs><clipPath id="d12d7d20ab"><path d="M 605.96875 243 L 833.96875 243 L 833.96875 567 L 605.96875 567 Z M 605.96875 243 "/></clipPath></defs><g id="f9db7bf8cf"><g clip-rule="nonzero" clip-path="url(#d12d7d20ab)"><path style=" stroke:none;fill-rule:evenodd;fill:#eb7e3d;fill-opacity:1;" d="M 738.058594 243.171875 C 748.828125 243.296875 763.214844 243.550781 770.027344 243.800781 C 776.84375 244.011719 785.84375 244.476562 790.007812 244.8125 C 794.175781 245.148438 800.316406 245.738281 803.679688 246.074219 C 807.046875 246.453125 811.96875 247.125 814.617188 247.589844 C 817.269531 248.050781 821.265625 248.890625 823.453125 249.480469 C 825.640625 250.070312 828.542969 251.164062 829.886719 251.878906 C 831.234375 252.636719 832.621094 253.644531 832.960938 254.191406 C 833.296875 254.695312 833.675781 255.539062 833.800781 256.085938 C 833.96875 256.714844 833.675781 257.429688 832.832031 258.441406 C 832.203125 259.199219 830.980469 260.207031 830.183594 260.585938 C 829.382812 261.007812 827.113281 261.722656 825.136719 262.226562 C 823.15625 262.730469 821.222656 263.109375 820.800781 263.109375 C 820.421875 263.109375 820.085938 263.238281 820.085938 263.445312 C 820.085938 263.613281 820.675781 263.953125 821.433594 264.246094 C 822.191406 264.539062 823.703125 265.339844 824.796875 266.054688 C 825.933594 266.769531 827.363281 268.199219 828.078125 269.335938 C 828.792969 270.429688 829.46875 272.15625 829.59375 273.207031 C 829.761719 274.550781 829.59375 275.855469 828.964844 277.75 C 828.457031 279.179688 827.40625 281.453125 826.566406 282.796875 C 825.722656 284.101562 824.042969 286.414062 822.863281 287.886719 C 821.683594 289.359375 815.628906 295.375 809.359375 301.308594 C 803.09375 307.195312 796.488281 313.296875 794.636719 314.851562 C 792.785156 316.410156 788.328125 319.691406 784.75 322.214844 C 781.175781 324.695312 776.546875 328.101562 774.445312 329.785156 C 772.339844 331.46875 769.144531 334.203125 767.292969 335.84375 C 765.441406 337.527344 761.363281 341.5625 758.25 344.886719 C 755.136719 348.210938 747.3125 356.289062 740.917969 362.851562 C 734.523438 369.414062 728.296875 376.015625 727.078125 377.53125 C 725.859375 379.046875 724.175781 381.78125 723.292969 383.628906 C 722.410156 385.480469 721.398438 388.511719 721.019531 390.363281 C 720.429688 393.304688 720.304688 400.710938 720.09375 448.203125 C 719.925781 478.152344 719.84375 505.246094 719.882812 508.359375 C 719.96875 511.933594 720.222656 514.960938 720.640625 516.5625 C 721.019531 517.949219 721.777344 520.050781 722.410156 521.1875 C 722.996094 522.367188 724.511719 524.34375 725.816406 525.648438 C 727.332031 527.160156 729.265625 528.507812 731.328125 529.515625 C 733.050781 530.359375 736.082031 531.496094 738.058594 532.042969 C 740.035156 532.628906 745.714844 533.683594 750.675781 534.398438 C 755.640625 535.113281 762.457031 536.207031 765.820312 536.792969 C 769.1875 537.339844 773.226562 538.226562 774.867188 538.6875 C 776.507812 539.191406 778.902344 540.160156 780.292969 540.875 C 781.636719 541.632812 783.109375 542.726562 783.53125 543.398438 C 783.992188 544.03125 784.332031 545.164062 784.332031 545.921875 C 784.332031 546.765625 783.785156 548.027344 782.898438 549.371094 C 782.101562 550.550781 780.628906 552.066406 779.617188 552.78125 C 778.609375 553.496094 775.832031 555.136719 773.394531 556.398438 C 770.953125 557.703125 767.292969 559.382812 765.191406 560.226562 C 763.085938 561.023438 759.511719 562.203125 757.199219 562.75 C 754.882812 563.339844 750.886719 564.222656 748.363281 564.683594 C 745.839844 565.148438 741.550781 565.820312 738.898438 566.199219 C 735.324219 566.660156 729.894531 566.828125 718.074219 566.828125 C 707.417969 566.828125 699.566406 566.621094 694.519531 566.199219 C 690.355469 565.863281 682.320312 564.980469 676.640625 564.304688 C 670.960938 563.589844 664.0625 562.75 661.285156 562.371094 C 658.003906 561.949219 655.480469 561.359375 654.050781 560.6875 C 652.5625 560.015625 651.609375 559.257812 651.191406 558.417969 C 650.855469 557.742188 650.558594 556.355469 650.558594 555.386719 C 650.558594 554.335938 650.894531 553.03125 651.402344 552.234375 C 651.863281 551.476562 652.957031 550.382812 653.839844 549.792969 C 654.683594 549.246094 656.996094 548.066406 658.972656 547.226562 C 660.949219 546.425781 666.082031 544.703125 670.457031 543.441406 C 674.789062 542.179688 679.753906 540.582031 681.476562 539.90625 C 683.203125 539.234375 686.105469 537.886719 687.914062 537.003906 C 689.679688 536.078125 692.542969 534.398438 694.222656 533.21875 C 695.863281 532.039062 698.304688 530.023438 699.566406 528.761719 C 700.828125 527.496094 702.722656 525.140625 703.773438 523.5 C 704.824219 521.859375 706.296875 519.292969 707.097656 517.738281 C 707.855469 516.140625 709.074219 513.28125 709.789062 511.300781 C 710.460938 509.324219 711.34375 506.296875 711.683594 504.570312 C 712.1875 502.132812 712.3125 497.882812 712.355469 485.429688 C 712.355469 476.640625 712.101562 461.03125 711.765625 450.726562 C 711.429688 440.421875 711.007812 430.871094 710.882812 429.484375 C 710.757812 428.09375 710.503906 422.039062 710.292969 416.023438 C 710.042969 410.007812 709.703125 402.054688 709.453125 398.355469 C 709.199219 394.652344 708.820312 390.320312 708.609375 388.679688 C 708.359375 387.039062 707.8125 384.597656 707.347656 383.210938 C 706.886719 381.820312 705.707031 379.507812 704.742188 378.078125 C 703.730469 376.648438 699.734375 372.105469 695.78125 367.980469 C 691.828125 363.859375 684.253906 355.574219 678.953125 349.558594 C 673.652344 343.582031 666.628906 335.71875 663.390625 332.140625 C 660.148438 328.566406 653.882812 321.917969 649.507812 317.375 C 645.089844 312.875 639.875 307.195312 637.898438 304.757812 C 635.921875 302.316406 633.4375 299.121094 632.386719 297.605469 C 631.335938 296.089844 629.652344 293.441406 628.644531 291.714844 C 627.632812 289.992188 625.992188 287.425781 624.941406 286.035156 C 623.847656 284.5625 622.964844 282.882812 622.835938 281.957031 C 622.628906 280.777344 622.796875 280.230469 623.425781 279.515625 C 624.058594 278.886719 624.773438 278.632812 626.160156 278.675781 C 627.210938 278.675781 629.105469 278.96875 630.367188 279.347656 C 631.628906 279.726562 635.035156 281.074219 637.9375 282.335938 C 640.84375 283.640625 645.386719 285.53125 648.035156 286.542969 C 650.683594 287.59375 655.734375 289.148438 659.183594 290.03125 C 662.675781 290.917969 668.691406 292.136719 672.644531 292.726562 C 676.597656 293.3125 682.738281 294.15625 686.316406 294.660156 C 689.890625 295.121094 695.484375 295.878906 698.726562 296.34375 C 701.964844 296.761719 711.386719 297.730469 719.675781 298.445312 C 728.84375 299.203125 737.511719 299.707031 741.96875 299.707031 C 745.921875 299.707031 751.390625 299.917969 754.042969 300.128906 C 756.691406 300.339844 759.847656 300.84375 760.984375 301.222656 C 762.328125 301.726562 763.800781 302.695312 765.105469 304 C 766.367188 305.304688 767.25 306.648438 767.589844 307.828125 C 767.839844 308.792969 768.050781 310.8125 768.007812 312.328125 C 768.007812 313.84375 767.796875 315.566406 767.546875 316.242188 C 767.292969 316.871094 767.210938 317.375 767.417969 317.375 C 767.589844 317.375 770.070312 316.113281 772.972656 314.601562 C 775.875 313.042969 780.585938 310.308594 783.488281 308.542969 C 786.390625 306.734375 790.347656 304.082031 792.324219 302.652344 C 794.300781 301.222656 798.464844 297.480469 801.578125 294.367188 C 804.859375 291.125 807.46875 288.8125 807.804688 288.9375 C 808.054688 289.066406 808.308594 289.484375 808.308594 289.824219 C 808.308594 290.160156 807.296875 291.632812 806.078125 293.105469 C 804.816406 294.535156 802.207031 297.183594 800.273438 298.992188 C 798.339844 300.800781 794.890625 303.664062 792.660156 305.304688 C 790.386719 306.984375 785.929688 309.929688 782.773438 311.824219 C 779.578125 313.757812 774.402344 316.617188 765.527344 320.953125 L 763.253906 324.90625 C 761.53125 327.894531 759.386719 330.628906 754.421875 336.054688 C 750.804688 340.007812 742.851562 348.167969 736.753906 354.226562 C 729.140625 361.757812 724.890625 365.625 723.164062 366.636719 C 721.820312 367.433594 720.640625 368.191406 720.558594 368.359375 C 720.472656 368.570312 719.296875 368.695312 717.992188 368.695312 C 716.644531 368.695312 714.792969 368.488281 713.871094 368.234375 C 712.945312 367.980469 711.050781 367.394531 709.664062 366.886719 C 708.273438 366.382812 704.949219 364.53125 702.300781 362.765625 C 699.652344 361 696.203125 358.433594 694.6875 357.085938 C 693.171875 355.742188 690.480469 353.089844 688.796875 351.238281 C 687.074219 349.386719 683.117188 345.054688 680.003906 341.5625 C 676.894531 338.113281 671.425781 332.269531 667.847656 328.523438 C 664.273438 324.820312 657.753906 317.839844 653.335938 313 C 647.195312 306.3125 644.417969 303.621094 641.515625 301.515625 C 639.453125 300.042969 637.222656 298.402344 636.59375 297.898438 C 635.960938 297.394531 635.332031 297.058594 635.203125 297.183594 C 635.121094 297.308594 636.675781 299.457031 638.695312 302.023438 C 640.714844 304.546875 646.605469 310.980469 651.777344 316.324219 C 656.996094 321.625 664.988281 330.25 669.617188 335.464844 C 674.242188 340.679688 681.898438 349.179688 686.609375 354.394531 C 691.28125 359.609375 697.671875 366.507812 700.703125 369.789062 C 703.816406 373.113281 707.011719 376.898438 707.855469 378.414062 C 708.863281 380.097656 709.746094 382.453125 710.25 384.683594 C 710.757812 386.871094 711.34375 392.042969 711.722656 397.933594 C 712.058594 403.234375 712.480469 411.183594 712.605469 415.601562 C 712.734375 420.019531 713.113281 428.136719 713.449219 433.691406 C 713.742188 439.242188 714.164062 449.675781 714.332031 456.828125 C 714.542969 463.976562 714.585938 478.953125 714.542969 490.058594 C 714.457031 501.164062 714.375 513.953125 714.332031 518.453125 C 714.289062 525.941406 714.207031 526.867188 713.324219 528.96875 C 712.816406 530.230469 711.765625 532.210938 711.050781 533.386719 C 710.292969 534.523438 708.273438 536.960938 706.507812 538.773438 C 704.78125 540.582031 702.132812 542.976562 700.617188 544.113281 C 699.105469 545.207031 695.90625 547.183594 693.46875 548.445312 C 691.027344 549.75 687.074219 551.476562 684.632812 552.316406 C 682.191406 553.160156 678.324219 554.210938 676.007812 554.714844 C 672.6875 555.429688 670.246094 555.597656 664.441406 555.640625 C 658.511719 555.640625 656.699219 555.515625 655.101562 554.925781 C 653.167969 554.253906 653.082031 554.253906 652.832031 554.925781 C 652.703125 555.347656 652.789062 556.144531 653.042969 556.734375 C 653.292969 557.363281 654.261719 558.121094 655.480469 558.667969 C 656.574219 559.175781 658.804688 559.804688 660.445312 560.058594 C 662.085938 560.308594 665.367188 560.730469 667.804688 560.941406 C 670.246094 561.191406 676.007812 561.867188 680.636719 562.414062 C 685.265625 563 692.625 563.632812 697.042969 563.886719 C 701.460938 564.09375 711.175781 564.304688 718.707031 564.304688 C 726.238281 564.304688 734.566406 564.09375 737.214844 563.886719 C 739.867188 563.675781 745 562.917969 748.574219 562.203125 C 752.148438 561.488281 757.449219 560.183594 760.351562 559.300781 C 763.550781 558.289062 767.925781 556.441406 771.5 554.628906 C 775.074219 552.78125 778.105469 550.929688 779.199219 549.878906 C 780.207031 548.910156 781.257812 547.648438 781.597656 547.058594 C 781.933594 546.34375 782.015625 545.671875 781.765625 545.039062 C 781.511719 544.449219 780.292969 543.609375 778.355469 542.683594 C 776.675781 541.882812 774.148438 540.960938 772.761719 540.582031 C 771.375 540.242188 767.964844 539.570312 765.191406 539.109375 C 762.414062 538.644531 755.683594 537.59375 750.257812 536.753906 C 744.832031 535.953125 738.773438 534.773438 736.796875 534.1875 C 734.816406 533.597656 731.789062 532.417969 730.066406 531.621094 C 727.835938 530.570312 726.070312 529.265625 724.089844 527.328125 C 722.242188 525.480469 720.894531 523.667969 720.011719 521.820312 C 719.296875 520.304688 718.496094 518.03125 718.242188 516.769531 C 717.949219 515.257812 717.738281 504.402344 717.65625 485.222656 C 717.570312 469.152344 717.65625 452.789062 717.824219 448.832031 C 717.949219 444.878906 717.992188 431.921875 717.867188 420.019531 C 717.695312 404.203125 717.78125 397.09375 718.160156 393.726562 C 718.453125 391.203125 719 388.046875 719.378906 386.785156 C 719.757812 385.523438 720.683594 383.253906 721.441406 381.738281 C 722.199219 380.222656 723.964844 377.574219 725.351562 375.847656 C 726.742188 374.125 733.765625 366.636719 741.003906 359.230469 C 748.238281 351.828125 755.894531 343.878906 757.996094 341.605469 C 760.101562 339.335938 764.179688 335.378906 767.082031 332.816406 C 769.984375 330.289062 774.023438 326.96875 776.128906 325.410156 C 778.230469 323.855469 782.101562 321.078125 784.75 319.226562 C 787.402344 317.417969 791.1875 314.558594 793.164062 312.917969 C 795.140625 311.277344 801.113281 305.808594 806.414062 300.800781 C 811.714844 295.796875 817.269531 290.410156 818.742188 288.855469 C 820.214844 287.296875 822.402344 284.523438 823.621094 282.671875 C 824.839844 280.820312 826.1875 278.464844 826.605469 277.414062 C 827.113281 276.109375 827.238281 274.890625 827.113281 273.417969 C 826.945312 271.945312 826.480469 270.851562 825.640625 269.839844 C 824.964844 269.042969 823.410156 267.863281 822.148438 267.234375 C 820.886719 266.601562 818.742188 265.761719 817.351562 265.425781 C 815.878906 265.046875 812.9375 264.792969 810.203125 264.792969 C 807.675781 264.792969 805.320312 264.625 805.027344 264.457031 C 804.691406 264.289062 804.523438 263.785156 804.605469 263.320312 C 804.734375 262.5625 805.195312 262.4375 809.992188 262.183594 C 812.894531 262.015625 817.605469 261.386719 820.507812 260.796875 C 823.410156 260.164062 826.734375 259.324219 827.871094 258.902344 C 829.046875 258.441406 830.351562 257.726562 831.65625 256.378906 L 830.8125 255.496094 C 830.351562 254.992188 829.132812 254.191406 828.078125 253.644531 C 827.027344 253.140625 824.757812 252.300781 823.03125 251.835938 C 821.308594 251.332031 818.277344 250.660156 816.300781 250.28125 C 814.324219 249.945312 810.75 249.355469 808.308594 249.019531 C 805.867188 248.683594 799.472656 248.050781 794.132812 247.546875 C 788.746094 247.082031 779.828125 246.496094 774.359375 246.285156 C 768.851562 246.03125 751.855469 245.863281 736.585938 245.820312 C 714.667969 245.820312 704.78125 245.988281 689.679688 246.703125 C 679.164062 247.167969 664.695312 247.925781 657.5 248.386719 C 650.308594 248.851562 642.105469 249.4375 639.203125 249.648438 C 636.296875 249.902344 631.585938 250.363281 628.683594 250.742188 C 625.78125 251.078125 621.363281 251.835938 618.800781 252.425781 C 616.234375 252.972656 613.246094 253.898438 612.070312 254.402344 C 610.933594 254.949219 609.628906 255.707031 609.25 256.085938 C 608.828125 256.464844 608.492188 257.179688 608.492188 257.640625 C 608.492188 258.105469 609.039062 258.988281 609.671875 259.617188 C 610.300781 260.292969 611.941406 261.300781 613.246094 261.933594 C 614.550781 262.605469 617.285156 263.574219 619.347656 264.160156 C 621.363281 264.75 625.277344 265.675781 628.054688 266.222656 C 630.828125 266.8125 637.054688 267.820312 641.9375 268.535156 C 646.816406 269.253906 652.664062 270.007812 654.976562 270.21875 C 657.289062 270.472656 662.800781 270.851562 667.175781 271.101562 C 671.550781 271.3125 679.921875 271.648438 685.683594 271.777344 C 691.488281 271.945312 705.078125 271.816406 715.972656 271.523438 C 726.867188 271.230469 736.164062 271.144531 736.710938 271.269531 C 737.300781 271.441406 737.59375 271.816406 737.511719 272.238281 C 737.425781 272.785156 736.878906 273.082031 735.535156 273.289062 C 734.480469 273.417969 721.988281 273.710938 707.769531 273.878906 C 689.597656 274.089844 678.703125 274.003906 671.171875 273.667969 C 665.28125 273.375 657.710938 272.871094 654.34375 272.535156 C 650.980469 272.195312 645.046875 271.441406 641.09375 270.851562 C 637.140625 270.261719 631.125 269.253906 627.632812 268.535156 C 624.183594 267.863281 620.019531 266.894531 618.378906 266.433594 C 616.738281 265.929688 614.507812 265.171875 613.332031 264.667969 C 612.195312 264.203125 610.429688 263.277344 609.460938 262.605469 C 608.449219 261.976562 607.273438 260.796875 606.808594 260.039062 C 606.347656 259.324219 605.96875 258.230469 605.96875 257.640625 C 605.96875 257.054688 606.304688 256 606.726562 255.328125 C 607.148438 254.613281 608.617188 253.476562 610.007812 252.71875 C 611.480469 251.921875 614.339844 250.953125 617.117188 250.320312 C 619.683594 249.734375 624.6875 248.890625 628.265625 248.429688 C 631.839844 247.964844 638.949219 247.292969 644.039062 246.957031 C 649.128906 246.578125 657.753906 245.988281 663.179688 245.652344 C 668.605469 245.316406 680.046875 244.769531 688.628906 244.390625 C 697.210938 244.011719 707.390625 243.550781 711.34375 243.339844 C 715.300781 243.128906 727.289062 243.085938 738.058594 243.171875 Z M 625.191406 282.039062 C 625.363281 282.375 626.625 284.1875 628.054688 286.035156 C 629.484375 287.886719 631.964844 290.621094 633.5625 292.050781 C 635.164062 293.523438 638.191406 296.046875 640.253906 297.648438 C 642.355469 299.203125 646.140625 301.769531 648.667969 303.285156 C 651.230469 304.839844 655.945312 307.363281 659.183594 308.960938 C 662.421875 310.5625 667.429688 312.707031 670.332031 313.757812 C 673.234375 314.769531 679.753906 316.871094 684.84375 318.429688 C 689.933594 319.984375 696.664062 321.878906 699.777344 322.675781 C 702.890625 323.476562 708.023438 324.613281 711.136719 325.242188 C 715.171875 326 718.832031 326.378906 723.753906 326.503906 C 727.792969 326.671875 732.714844 326.546875 735.535156 326.253906 C 738.183594 325.957031 741.800781 325.453125 743.527344 325.117188 C 745.25 324.738281 748.867188 323.8125 751.519531 323.054688 C 754.167969 322.253906 758.039062 320.992188 760.101562 320.238281 C 763.761719 318.890625 763.886719 318.765625 764.683594 316.957031 C 765.148438 315.902344 765.609375 314.09375 765.738281 312.960938 C 765.863281 311.613281 765.695312 310.054688 765.230469 308.625 C 764.769531 307.070312 764.136719 306.101562 763.003906 305.175781 C 762.121094 304.503906 760.480469 303.621094 759.300781 303.242188 C 757.617188 302.695312 754.503906 302.484375 744.15625 302.191406 C 735.660156 301.980469 726.070312 301.433594 716.605469 300.589844 C 708.609375 299.875 698.21875 298.742188 693.46875 298.027344 C 688.714844 297.351562 681.730469 296.386719 677.902344 295.921875 C 674.074219 295.417969 668.984375 294.660156 666.542969 294.199219 C 664.105469 293.734375 660.066406 292.808594 657.5 292.136719 C 654.976562 291.464844 651.0625 290.285156 648.875 289.484375 C 646.6875 288.6875 642.0625 286.792969 638.570312 285.28125 C 635.121094 283.808594 630.957031 282.167969 629.316406 281.660156 C 627.675781 281.15625 626.160156 280.777344 625.910156 280.777344 C 625.65625 280.777344 625.363281 280.90625 625.191406 281.074219 C 625.066406 281.28125 625.066406 281.703125 625.191406 282.039062 Z M 658.46875 315.230469 C 661.414062 318.34375 666.671875 323.8125 670.121094 327.429688 C 673.613281 331.046875 679.753906 337.695312 683.832031 342.195312 C 687.914062 346.695312 692.75 351.828125 694.5625 353.636719 C 696.410156 355.402344 699.988281 358.308594 702.511719 360.074219 C 705.328125 362.007812 708.441406 363.773438 710.503906 364.53125 C 712.355469 365.246094 714.878906 366.003906 716.097656 366.214844 C 718.160156 366.550781 718.453125 366.507812 720.683594 365.207031 C 722.03125 364.492188 724.804688 362.304688 726.910156 360.453125 C 728.972656 358.558594 735.742188 351.953125 741.886719 345.730469 C 748.027344 339.503906 754.335938 332.898438 755.894531 331.046875 C 757.449219 329.195312 759.386719 326.589844 760.183594 325.242188 C 760.984375 323.9375 761.574219 322.761719 761.53125 322.632812 C 761.445312 322.550781 759.722656 323.011719 757.617188 323.726562 C 755.515625 324.402344 751.390625 325.621094 748.363281 326.421875 C 745.378906 327.175781 741.085938 328.0625 738.898438 328.355469 C 736.667969 328.648438 731.160156 328.902344 726.488281 328.902344 C 720.472656 328.902344 716.855469 328.691406 713.871094 328.144531 C 711.554688 327.765625 707.097656 326.882812 703.984375 326.167969 C 700.871094 325.496094 694.730469 323.855469 690.3125 322.59375 C 685.894531 321.289062 679.375 319.3125 675.800781 318.132812 C 672.222656 316.957031 667.429688 315.273438 665.199219 314.390625 C 662.925781 313.464844 659.394531 311.90625 657.289062 310.855469 C 655.230469 309.804688 653.417969 308.960938 653.292969 308.960938 C 653.167969 308.960938 653.082031 309.089844 653.082031 309.257812 C 653.125 309.46875 655.523438 312.117188 658.46875 315.230469 Z M 710.925781 515.089844 C 710.503906 516.140625 709.410156 518.410156 708.484375 520.136719 C 707.558594 521.859375 706.042969 524.425781 705.121094 525.816406 C 704.195312 527.203125 702.257812 529.476562 700.871094 530.863281 C 699.441406 532.25 696.707031 534.480469 694.730469 535.785156 C 692.75 537.046875 689.933594 538.730469 688.417969 539.488281 C 686.90625 540.242188 684.003906 541.507812 681.898438 542.347656 C 679.796875 543.148438 675.167969 544.617188 671.59375 545.628906 C 668.015625 546.636719 663.390625 548.152344 661.285156 548.953125 C 659.226562 549.75 656.828125 550.84375 656.027344 551.347656 L 654.554688 552.273438 C 657.835938 553.074219 661.160156 553.328125 664.148438 553.328125 C 667.707031 553.355469 671.074219 553.101562 674.242188 552.570312 C 676.808594 552.105469 680.636719 551.140625 682.738281 550.425781 C 684.84375 549.667969 688.207031 548.277344 690.3125 547.3125 C 692.414062 546.34375 695.863281 544.324219 698.050781 542.851562 C 700.367188 541.253906 703.4375 538.601562 705.371094 536.542969 C 707.601562 534.144531 709.15625 532 710.125 530.023438 C 711.21875 527.792969 711.640625 526.234375 711.890625 523.5 C 712.101562 521.523438 712.144531 518.410156 711.976562 516.5625 L 711.722656 513.195312 Z M 710.925781 515.089844 "/></g></g></svg>