<svg xmlns="http://www.w3.org/2000/svg" xmlns:xlink="http://www.w3.org/1999/xlink" width="1920" zoomAndPan="magnify" viewBox="0 0 1440 809.999993" height="1080" preserveAspectRatio="xMidYMid meet" version="1.2"><defs><clipPath id="1076308bf5"><path d="M 190 330 L 1247 330 L 1247 480.550781 L 190 480.550781 Z M 190 330 "/></clipPath></defs><g id="75a91ab1f7"><g clip-rule="nonzero" clip-path="url(#1076308bf5)"><path style=" stroke:none;fill-rule:nonzero;fill:#9a7d42;fill-opacity:1;" d="M 1240.542969 358.898438 C 1237.96875 355.910156 1234.785156 353.792969 1230.859375 353.355469 C 1223.445312 352.539062 1216.371094 353.851562 1209.996094 357.867188 C 1202.746094 362.441406 1199.589844 369.066406 1200.742188 377.636719 C 1201.398438 382.511719 1205.175781 386.414062 1209.988281 387.273438 C 1214.363281 388.054688 1221.960938 383.53125 1223.328125 379.347656 C 1223.527344 378.726562 1223.488281 378.191406 1223.007812 377.71875 C 1222.273438 376.992188 1221.476562 377.070312 1220.769531 377.664062 C 1219.496094 378.734375 1218.324219 379.929688 1217.039062 380.984375 C 1214.746094 382.871094 1212.296875 384.234375 1209.210938 382.847656 C 1206.042969 381.425781 1204.617188 378.800781 1204.386719 375.496094 C 1204.019531 370.226562 1206.117188 365.957031 1210.117188 362.652344 C 1214.070312 359.378906 1218.757812 357.652344 1223.761719 356.949219 C 1232.195312 355.765625 1236.542969 357.863281 1240.144531 364.515625 C 1246.40625 376.089844 1242.007812 390.453125 1229.964844 397.007812 C 1219.472656 402.714844 1208.039062 404.96875 1196.246094 404.140625 C 1181.882812 403.128906 1167.804688 400.078125 1153.828125 396.65625 C 1141.152344 393.554688 1128.382812 391.183594 1115.414062 390.515625 C 1116.703125 389.230469 1118.488281 388.941406 1120.46875 388.988281 C 1121.777344 389.019531 1123.085938 389.019531 1124.394531 388.984375 C 1130.742188 388.824219 1135.71875 386.609375 1137.832031 380.023438 C 1138.582031 377.6875 1140.15625 375.917969 1142.042969 374.382812 C 1144.53125 372.359375 1147.1875 370.535156 1149.386719 368.160156 C 1150.691406 366.753906 1151.882812 365.265625 1152.589844 363.472656 C 1154.152344 359.5 1152.722656 357.230469 1148.484375 356.917969 C 1146.589844 356.78125 1144.710938 356.542969 1142.828125 356.339844 C 1137.40625 355.765625 1131.910156 355.136719 1126.75 357.699219 C 1123.28125 359.421875 1119.59375 360.117188 1115.785156 360.441406 C 1112.644531 360.710938 1109.515625 361.484375 1107.398438 363.882812 C 1104.660156 366.980469 1101.230469 368.53125 1097.46875 369.789062 C 1086.609375 373.421875 1083.445312 382.792969 1080.820312 392.519531 C 1080.769531 392.722656 1080.75 392.921875 1080.753906 393.117188 C 1073.425781 394.550781 1066.191406 396.457031 1059.007812 398.664062 C 1055.65625 399.695312 1052.371094 401.058594 1048.804688 401.269531 C 1048.957031 400.179688 1050.042969 400.050781 1050.722656 399.566406 C 1055.832031 395.925781 1060.222656 391.605469 1063.230469 386.050781 C 1064.820312 383.109375 1066.054688 380.128906 1066.859375 377.101562 C 1068.308594 377.140625 1069.644531 376.734375 1070.890625 375.914062 C 1075.03125 373.1875 1077.808594 369.332031 1079.246094 364.6875 C 1082.003906 355.804688 1081.507812 346.816406 1078.957031 337.992188 C 1077.578125 333.222656 1073.984375 332.46875 1070.257812 335.8125 C 1069.46875 336.523438 1068.785156 337.371094 1068.140625 338.21875 C 1064.707031 342.734375 1062.914062 347.789062 1062.378906 353.417969 C 1050.777344 336.882812 1025.460938 334.8125 1011.777344 351.253906 C 1003.648438 361.015625 1006.269531 375.027344 1017.3125 380.859375 C 1025.003906 384.921875 1032.488281 381.886719 1035.253906 373.617188 C 1035.574219 372.652344 1035.96875 371.757812 1034.78125 371.1875 C 1033.664062 370.652344 1032.976562 371.402344 1032.425781 372.210938 C 1031.824219 373.09375 1031.359375 374.070312 1030.753906 374.949219 C 1027.875 379.109375 1024.601562 380.015625 1019.933594 377.980469 C 1010.753906 373.980469 1007.890625 362.34375 1014.46875 354.25 C 1019.792969 347.699219 1027.011719 343.933594 1035.441406 343.476562 C 1044.214844 342.996094 1053.304688 347.894531 1058.792969 355.105469 C 1058.507812 354.90625 1058.21875 354.695312 1057.933594 354.5 C 1051.863281 350.328125 1044.960938 348.824219 1037.773438 348.417969 C 1035.929688 348.316406 1033.796875 348.398438 1032.882812 350.515625 C 1032.042969 352.464844 1033.285156 353.949219 1034.492188 355.292969 C 1039.269531 360.609375 1044.804688 364.816406 1051.882812 366.492188 C 1055.785156 367.414062 1059.761719 367.648438 1063.554688 366.011719 C 1063.621094 366.519531 1063.714844 367.019531 1063.742188 367.535156 C 1064.273438 377.96875 1059.921875 386.261719 1052.476562 393.097656 C 1046.753906 398.351562 1039.722656 401.285156 1032.480469 403.742188 C 1025.097656 406.246094 1017.566406 407.683594 1009.722656 406.75 C 999.128906 405.492188 989.023438 402.527344 979.4375 397.859375 C 970.035156 393.28125 960.664062 388.644531 951.328125 383.933594 C 933.644531 375.007812 915.238281 370.527344 895.378906 373.914062 C 909.042969 369.058594 923.109375 365.722656 937.734375 364.621094 C 938.960938 365.714844 939.898438 367.023438 940.515625 368.691406 C 942.746094 374.707031 947.140625 377.417969 953.488281 377.054688 C 958.699219 377.023438 964.144531 375.378906 968.777344 372.070312 C 971.800781 369.914062 974.992188 368.234375 978.523438 367.097656 C 982.898438 365.691406 985.9375 362.671875 987.109375 358.300781 C 987.960938 355.132812 989.542969 353.675781 992.695312 352.863281 C 998.421875 351.390625 1000.648438 347.792969 1000.140625 342.019531 C 999.839844 338.59375 997.855469 336.886719 994.671875 337.886719 C 990.25 339.277344 985.992188 338.902344 981.824219 337.300781 C 975.753906 334.96875 970.238281 335.46875 965.246094 339.859375 C 963.917969 341.023438 962.289062 341.632812 960.621094 341.042969 C 957.394531 339.902344 954.570312 340.859375 951.757812 342.296875 C 948.9375 343.738281 946.121094 344.308594 942.859375 343.554688 C 937.832031 342.390625 932.679688 346.222656 930.59375 352.175781 C 929.234375 356.0625 930.148438 359.246094 933.5625 361.777344 C 928.109375 362.191406 922.683594 362.832031 917.324219 364.050781 C 902.542969 367.40625 888.011719 371.496094 874.796875 379.179688 C 867.734375 381.722656 860.996094 385.09375 854.722656 389.738281 C 843.914062 397.75 833.707031 406.519531 822.96875 414.617188 C 807.320312 426.425781 790.699219 436.484375 772.199219 443.183594 C 770.820312 443.679688 769.445312 444.574219 767.855469 443.90625 C 775.425781 439.597656 781.183594 433.347656 786.214844 426.382812 C 793.976562 415.644531 797.988281 403.414062 800.121094 390.46875 C 800.738281 386.730469 801.285156 382.976562 801.882812 379.230469 C 807.332031 378.953125 811.710938 376.53125 815.347656 372.464844 C 824.746094 361.941406 826.078125 349.011719 825.9375 335.71875 C 825.914062 333.425781 824.191406 332.644531 822.214844 333.855469 C 820.703125 334.78125 819.359375 335.984375 817.933594 337.050781 C 815.230469 339.070312 812.9375 341.542969 810.726562 344.617188 C 808.90625 340.269531 807.457031 336.613281 805.335938 333.3125 C 803.300781 330.144531 801.363281 330.230469 799.527344 333.46875 C 797.371094 337.273438 795.683594 341.308594 794.105469 345.34375 C 793.082031 345.265625 792.949219 344.421875 792.589844 343.863281 C 790.582031 340.757812 788.363281 337.816406 785.800781 335.152344 C 785.054688 334.375 784.210938 333.839844 782.949219 334.34375 C 781.621094 334.875 781.671875 335.851562 781.671875 336.9375 C 781.660156 340.628906 781.4375 344.335938 781.644531 348.015625 C 782.125 356.554688 784.136719 364.707031 788.820312 371.980469 C 791.226562 375.714844 794.246094 378.515625 798.78125 379.132812 C 798.742188 379.421875 798.714844 379.714844 798.65625 380 C 797.480469 385.699219 796.464844 391.441406 795.085938 397.09375 C 790.226562 416.984375 779.859375 432.980469 761.84375 443.3125 C 764.914062 440.085938 767.109375 436.050781 767.988281 430.796875 C 769.050781 424.433594 770.535156 418.253906 773.683594 412.550781 C 775.433594 409.386719 776.21875 405.917969 776.523438 401.832031 C 776.199219 400.082031 775.875 397.847656 775.367188 395.660156 C 774.101562 390.230469 772.019531 385.027344 770.847656 379.566406 C 770.042969 375.808594 768.625 375.398438 765.402344 377.660156 C 760 381.453125 756.351562 386.457031 755.363281 393.03125 C 754.488281 398.867188 752.101562 403.878906 748.480469 408.4375 C 746.617188 410.78125 745.417969 413.46875 744.8125 416.457031 C 744.035156 420.269531 745.429688 423.734375 746.214844 427.300781 C 747.1875 431.699219 748.429688 436.042969 747.632812 440.65625 C 747.105469 443.6875 745.964844 446.300781 743.734375 448.46875 C 743.472656 448.722656 743.222656 449.042969 743.039062 449.371094 C 738.953125 449.347656 734.902344 448.75 730.949219 447.613281 C 727.84375 446.722656 724.738281 445.71875 721.960938 443.75 C 727.203125 437.019531 731.746094 430.203125 733.953125 422.125 C 736.191406 413.925781 737.328125 405.550781 737.207031 397.0625 C 737.132812 391.882812 736.042969 386.867188 732.9375 382.535156 C 729.582031 377.851562 725.335938 374.589844 719.246094 374.898438 C 709.449219 375.402344 702.496094 381.945312 700.816406 391.710938 C 699.910156 396.964844 700.296875 402.148438 700.78125 407.367188 C 701.835938 418.703125 704.828125 429.351562 711.675781 438.65625 C 712.9375 440.363281 714.207031 442.066406 715.671875 444.039062 C 708.558594 447.199219 701.527344 449.472656 694.40625 449.390625 C 694.21875 449.058594 693.902344 448.664062 693.445312 448.175781 C 691.507812 446.089844 690.46875 443.722656 689.902344 440.953125 C 688.960938 436.332031 690.148438 431.964844 691.183594 427.59375 C 691.871094 424.703125 692.550781 421.828125 692.96875 419.03125 C 692.734375 414.824219 691.25 411.25 688.75 408.101562 C 685.285156 403.738281 682.988281 398.925781 682.179688 393.328125 C 681.164062 386.320312 677.21875 381.101562 671.449219 377.203125 C 669.011719 375.554688 667.324219 376.082031 666.722656 378.914062 C 665.640625 384.039062 663.863281 388.949219 662.472656 393.972656 C 661.332031 398.09375 660.457031 402.277344 661.566406 406.617188 C 662.3125 409.523438 663.523438 412.214844 664.875 414.851562 C 666.902344 418.800781 668.332031 422.945312 668.746094 427.359375 C 669.375 434.027344 671.890625 439.285156 675.859375 443.441406 C 674.292969 442.589844 672.753906 441.695312 671.28125 440.683594 C 655.820312 430.054688 646.722656 415.140625 642.386719 397.121094 C 640.953125 391.167969 639.945312 385.109375 638.691406 379.109375 C 642.664062 378.410156 646.464844 375.996094 649.222656 371.175781 C 655.546875 360.132812 656.378906 348.222656 655.742188 335.976562 C 655.660156 334.460938 653.992188 333.71875 652.601562 334.445312 C 651.527344 335.003906 650.828125 336.007812 650.042969 336.898438 C 647.71875 339.546875 645.820312 342.53125 643.5625 345.695312 C 643.042969 344.476562 642.660156 343.640625 642.320312 342.785156 C 640.972656 339.359375 639.457031 336 637.550781 332.847656 C 636.140625 330.515625 634.5 330.40625 632.757812 332.464844 C 632.074219 333.269531 631.496094 334.199219 631.035156 335.152344 C 629.632812 338.027344 628.316406 340.941406 626.683594 344.445312 C 623.613281 340.242188 620.007812 337.203125 616.152344 334.445312 C 615.097656 333.6875 614.097656 332.78125 612.628906 333.636719 C 611.351562 334.382812 611.449219 335.601562 611.4375 336.769531 C 611.386719 342.726562 611.773438 348.660156 613.132812 354.46875 C 615.074219 362.757812 618.5625 370.214844 625.496094 375.546875 C 628.402344 377.78125 631.988281 379.1875 635.617188 379.320312 C 635.625 379.390625 635.632812 379.457031 635.644531 379.523438 C 636.234375 383.160156 636.742188 386.808594 637.339844 390.441406 C 639.160156 401.433594 642.269531 412 648.109375 421.578125 C 653.609375 430.601562 660.390625 438.433594 669.5625 443.933594 C 667.980469 444.546875 666.621094 443.65625 665.242188 443.175781 C 654.546875 439.429688 644.550781 434.222656 634.816406 428.457031 C 620.527344 419.996094 607.804688 409.410156 594.875 399.097656 C 587.339844 393.089844 579.914062 386.886719 571.171875 382.664062 C 568.257812 381.257812 565.296875 380.039062 562.296875 378.972656 C 557.832031 376.40625 553.253906 374.078125 548.386719 372.277344 C 533.964844 366.941406 519.25 363.1875 504.058594 361.765625 C 505.492188 360.6875 506.625 359.289062 507.179688 357.445312 C 509.019531 351.296875 501.621094 341.8125 494.972656 343.476562 C 491.324219 344.386719 488.238281 343.605469 485.078125 342 C 482.613281 340.746094 480.0625 339.957031 477.210938 340.976562 C 475.269531 341.671875 473.476562 340.996094 471.941406 339.660156 C 467.144531 335.480469 461.792969 334.996094 455.988281 337.171875 C 451.683594 338.785156 447.367188 339.332031 442.808594 337.890625 C 439.617188 336.882812 437.628906 338.585938 437.324219 342 C 436.789062 347.976562 439.234375 351.601562 445.414062 353.113281 C 448.085938 353.765625 449.480469 355.015625 450.132812 357.605469 C 451.359375 362.480469 454.515625 365.722656 459.25 367.226562 C 462.6875 368.320312 465.695312 370.074219 468.679688 372.050781 C 473.277344 375.101562 478.269531 377.21875 483.957031 377.054688 C 490.300781 377.417969 494.707031 374.726562 496.941406 368.707031 C 497.53125 367.117188 498.386719 365.808594 499.527344 364.734375 C 512.566406 365.195312 525.019531 368.460938 537.363281 372.429688 C 539.074219 372.980469 540.777344 373.554688 542.476562 374.132812 C 539.949219 373.746094 537.410156 373.417969 534.839844 373.167969 C 520.066406 371.726562 506.304688 374.953125 492.933594 380.855469 C 485.644531 384.074219 478.527344 387.632812 471.449219 391.277344 C 461.304688 396.507812 451.125 401.667969 439.972656 404.488281 C 432.796875 406.300781 425.480469 407.6875 418.109375 406.828125 C 409.449219 405.820312 401.222656 402.976562 393.46875 398.933594 C 385.753906 394.910156 379.734375 389.164062 376.175781 381.085938 C 374.023438 376.199219 372.914062 371.078125 373.824219 365.996094 C 373.863281 366.015625 373.894531 366.035156 373.933594 366.054688 C 375.113281 366.597656 376.359375 366.917969 377.695312 367.019531 C 388.894531 367.875 396.96875 362.269531 403.765625 354.242188 C 405.992188 351.613281 404.9375 349.242188 401.5625 348.558594 C 398.332031 347.90625 395.179688 348.84375 392.050781 349.398438 C 387.09375 350.273438 382.628906 352.300781 378.621094 355.152344 C 383.050781 348.875 389.546875 344.929688 397.800781 343.691406 C 407.851562 342.183594 416.296875 346.585938 422.777344 354 C 429.722656 361.945312 426.816406 373.953125 417.511719 377.988281 C 412.84375 380.015625 409.582031 379.101562 406.699219 374.933594 C 405.957031 373.859375 405.320312 372.710938 404.5625 371.648438 C 404.105469 371.011719 403.398438 370.835938 402.664062 371.191406 C 401.910156 371.554688 401.796875 372.167969 401.941406 372.972656 C 403.101562 379.378906 409.839844 383.816406 416.167969 382.3125 C 429.699219 379.09375 435.050781 362.585938 425.839844 351.570312 C 419.621094 344.136719 411.359375 339.808594 401.589844 339.71875 C 390.097656 339.609375 381.4375 344.875 375.113281 353.71875 C 374.675781 347.8125 372.660156 342.472656 368.964844 337.734375 C 368.003906 336.503906 366.949219 335.394531 365.570312 334.625 C 363.035156 333.210938 360.589844 333.78125 359.199219 336.246094 C 358.679688 337.160156 358.375 338.210938 358.082031 339.234375 C 356.222656 345.75 356.148438 352.449219 356.839844 359.070312 C 357.472656 365.109375 360.023438 370.5 364.769531 374.582031 C 366.460938 376.035156 368.316406 377.214844 370.671875 377.117188 C 372.953125 386.160156 378.246094 393.257812 385.882812 398.949219 C 386.832031 399.65625 388.273438 399.878906 388.636719 401.289062 C 387.710938 401.375 386.847656 401.113281 385.957031 400.871094 C 378.273438 398.800781 370.734375 396.226562 362.976562 394.417969 C 360.886719 393.929688 358.792969 393.507812 356.699219 393.109375 C 356.710938 392.800781 356.683594 392.488281 356.59375 392.175781 C 355.996094 390.125 355.269531 388.109375 354.640625 386.070312 C 351.925781 377.234375 346.464844 371.199219 337.320312 368.851562 C 334.960938 368.246094 333.003906 366.953125 331.390625 365.09375 C 328.742188 362.046875 325.265625 360.714844 321.332031 360.394531 C 317.765625 360.105469 314.3125 359.433594 311.042969 357.847656 C 309.132812 356.925781 307.09375 356.328125 304.933594 356.046875 C 299.066406 355.289062 293.355469 356.78125 287.566406 357.097656 C 285.171875 357.226562 284.417969 358.601562 284.40625 361.03125 C 284.394531 362.929688 285.226562 364.488281 286.257812 365.957031 C 287.777344 368.117188 289.636719 370.003906 291.789062 371.492188 C 295.902344 374.332031 299.101562 377.785156 300.925781 382.5625 C 302.320312 386.222656 305.390625 387.871094 309.179688 388.492188 C 312.019531 388.960938 314.851562 389.035156 317.703125 389.003906 C 319.484375 388.988281 320.992188 389.4375 322.109375 390.597656 C 316.160156 390.867188 310.199219 391.453125 304.222656 392.453125 C 292.015625 394.496094 280.097656 397.832031 267.964844 400.140625 C 256.542969 402.3125 245.121094 404.929688 233.375 404.101562 C 224.3125 403.464844 215.519531 401.5 207.472656 397.023438 C 195.015625 390.097656 190.808594 374.902344 198.011719 363.25 C 200.671875 358.949219 204.417969 356.5 209.457031 356.589844 C 216.019531 356.707031 222.15625 358.476562 227.351562 362.667969 C 231.28125 365.835938 233.335938 370.027344 233.101562 375.15625 C 232.945312 378.597656 231.554688 381.375 228.238281 382.851562 C 224.992188 384.296875 222.496094 382.738281 220.144531 380.742188 C 219.238281 379.972656 218.4375 379.074219 217.527344 378.308594 C 216.636719 377.550781 215.671875 376.53125 214.460938 377.746094 C 213.386719 378.820312 214.300781 379.710938 214.953125 380.535156 C 216.210938 382.125 217.597656 383.585938 219.199219 384.855469 C 226.511719 390.636719 235.25 385.878906 236.660156 377.976562 C 237.921875 370.933594 235.941406 364.671875 230.316406 359.992188 C 224.292969 354.984375 217.226562 353.078125 209.445312 353.167969 C 204.179688 353.234375 200.007812 355.207031 196.714844 359.199219 C 191.355469 365.707031 189.828125 373.265625 191.375 381.355469 C 193.277344 391.300781 199.644531 397.878906 208.640625 401.753906 C 220.054688 406.667969 231.984375 408.207031 244.484375 407.351562 C 256.636719 406.515625 268.539062 404.617188 280.359375 401.886719 C 286.421875 400.488281 292.457031 398.960938 298.683594 398.082031 C 294.140625 401.488281 290.039062 405.257812 286.785156 409.886719 C 276.90625 423.957031 278.453125 442.023438 290.644531 453.511719 C 295.832031 458.398438 301.933594 461.648438 309.234375 461.261719 C 320.210938 460.679688 329.996094 452.589844 332.644531 441.839844 C 334.148438 435.742188 333.769531 429.683594 329.054688 424.78125 C 323.398438 418.90625 314.265625 419.316406 309.710938 425.597656 C 308.21875 427.65625 307.332031 429.980469 307.273438 432.558594 C 307.257812 433.300781 307.453125 434.023438 308.347656 434.140625 C 308.984375 434.222656 309.539062 433.917969 309.820312 433.34375 C 310.234375 432.492188 310.605469 431.613281 310.917969 430.722656 C 311.660156 428.628906 312.925781 426.949219 314.777344 425.738281 C 320.402344 422.070312 328.21875 426.144531 329.519531 433.410156 C 332.042969 447.496094 316.511719 460.945312 303.054688 456.328125 C 290.507812 452.027344 282.136719 437.597656 284.992188 424.632812 C 287.992188 411.027344 296.570312 402.214844 309.519531 397.691406 C 322.003906 393.332031 334.835938 394.316406 347.621094 395.941406 C 357.761719 397.230469 367.554688 400.011719 377.320312 402.902344 C 374.667969 403.304688 372.105469 404.257812 369.683594 405.953125 C 366.414062 408.238281 362.96875 409.894531 359.085938 410.789062 C 357.375 411.183594 355.71875 411.9375 354.125 412.710938 C 348.617188 415.390625 345.242188 419.4375 345.984375 426.003906 C 346.589844 430.328125 344.480469 434.101562 343.527344 438.121094 C 342.902344 440.769531 342.085938 443.640625 344.417969 445.859375 C 346.789062 448.121094 349.417969 446.707031 351.722656 445.625 C 356.648438 443.308594 361.765625 442.207031 367.191406 442.011719 C 371.085938 441.871094 375.050781 440.835938 376.871094 437.042969 C 378.851562 432.925781 382.132812 431.128906 386.125 429.988281 C 395.625 427.269531 401.398438 420.347656 406.078125 412.199219 C 406.308594 411.792969 406.539062 411.339844 406.597656 410.886719 C 406.625 410.679688 406.65625 410.460938 406.679688 410.242188 C 409.300781 410.65625 411.9375 410.988281 414.59375 411.203125 C 430.003906 412.457031 444.632812 409.027344 458.523438 402.503906 C 465.101562 399.414062 471.601562 396.160156 478.113281 392.917969 C 477.5 393.828125 476.914062 394.765625 476.398438 395.773438 C 474.382812 399.722656 473.101562 403.914062 471.722656 408.078125 C 471.484375 408.800781 471.1875 409.476562 470.882812 410.148438 C 470.453125 409.820312 469.996094 409.523438 469.488281 409.257812 C 459.566406 404.035156 445.621094 408.273438 441.109375 416.605469 C 439.179688 420.167969 436.003906 422.132812 432.191406 423.214844 C 430.597656 423.664062 429.023438 424.203125 427.464844 424.765625 C 420.496094 427.28125 415.597656 431.632812 414.570312 439.417969 C 414.1875 442.328125 412.414062 444.101562 409.769531 445.070312 C 407.320312 445.96875 404.851562 446.804688 402.386719 447.65625 C 399.511719 448.648438 397.375 450.539062 396.453125 453.410156 C 395.179688 457.378906 392.585938 460.136719 389.269531 462.421875 C 387.203125 463.84375 385.320312 465.507812 384.238281 467.863281 C 382.550781 471.53125 383.839844 474.800781 387.535156 476.316406 C 389.316406 477.046875 391.226562 477.230469 393.097656 477.492188 C 398.847656 478.296875 404.484375 479.871094 411.757812 480.128906 C 419.542969 479.398438 427.375 475.117188 434.613281 469.972656 C 438.125 467.480469 441.460938 465.511719 445.726562 464.949219 C 450.066406 464.378906 454.355469 463.054688 456.523438 458.929688 C 459.421875 453.417969 463.828125 449.675781 468.882812 446.40625 C 471.414062 444.769531 473.410156 442.566406 474.488281 439.652344 C 477.824219 430.65625 477.246094 421.949219 473.195312 413.460938 C 473.75 412.488281 474.234375 411.453125 474.605469 410.332031 C 475.242188 408.417969 476.011719 406.546875 476.59375 404.621094 C 478.472656 398.414062 481.707031 393.1875 486.277344 388.898438 C 487.808594 388.152344 489.332031 387.398438 490.867188 386.664062 C 505.699219 379.578125 521.078125 375.195312 537.765625 377.691406 C 542.792969 378.441406 547.824219 379.089844 552.625 381 C 550.972656 381.253906 549.332031 381.121094 547.714844 381.273438 C 538.316406 382.164062 530.335938 385.203125 524.082031 390.789062 C 523.632812 390.679688 523.027344 390.621094 522.15625 390.546875 C 511.867188 389.667969 503.375 393.730469 495.875 400.296875 C 492.382812 403.355469 489.140625 406.714844 487.269531 411.097656 C 485.925781 414.25 487.242188 416.507812 490.628906 416.945312 C 491.808594 417.097656 492.984375 416.945312 494.164062 416.699219 C 497.558594 415.992188 500.773438 414.808594 503.871094 413.28125 C 507.210938 411.636719 510.332031 409.636719 513.328125 407.464844 C 508.261719 423.152344 515.863281 438.851562 526.960938 445.664062 C 535.964844 451.195312 548.65625 451.082031 555.917969 442.417969 C 560.914062 436.457031 562.242188 429.722656 559.957031 422.367188 C 557.738281 415.214844 552.082031 412.355469 545.246094 411.109375 C 544.152344 410.910156 542.976562 410.429688 542.507812 411.765625 C 541.945312 413.367188 543.335938 413.738281 544.460938 414.140625 C 546.132812 414.746094 547.835938 415.269531 549.484375 415.933594 C 553.386719 417.507812 555.800781 420.394531 556.949219 424.445312 C 559.890625 434.808594 552.210938 445.425781 541.472656 445.816406 C 535.320312 446.039062 529.980469 443.953125 525.554688 439.800781 C 516.144531 430.96875 513.78125 418.9375 517.289062 408.300781 C 517.3125 418.75 522.507812 426.550781 530.601562 432.875 C 531.917969 433.90625 533.3125 434.835938 534.882812 435.382812 C 538.265625 436.566406 540.523438 435.113281 540.851562 431.527344 C 541.003906 429.875 540.917969 428.214844 540.632812 426.546875 C 539.152344 417.890625 535.75 409.941406 531.804688 402.195312 C 530.445312 399.527344 528.789062 397.070312 526.226562 395.359375 C 526.058594 395.246094 525.921875 395.105469 525.789062 394.964844 C 526.199219 394.570312 526.585938 394.160156 527.019531 393.78125 C 536.230469 385.769531 547.285156 384.25 558.886719 385.910156 C 570.773438 387.613281 580.644531 393.972656 590.042969 400.878906 C 598.285156 406.9375 606.023438 413.679688 614.257812 419.765625 C 620.433594 424.328125 626.78125 428.523438 633.292969 432.386719 C 627.675781 431.046875 622.0625 429.703125 616.488281 428.214844 C 609.730469 426.410156 603.828125 427.402344 598.777344 432.460938 C 596.660156 434.582031 594.027344 435.617188 591.054688 435.609375 C 585.375 435.59375 581.25 438.199219 578.660156 443.132812 C 575.925781 448.339844 572.6875 453.070312 568.394531 457.167969 C 565.269531 460.152344 565.820312 464.390625 569.167969 467.175781 C 570.464844 468.253906 571.964844 468.957031 573.597656 469.378906 C 577.421875 470.367188 581.308594 470.773438 585.246094 470.507812 C 590.742188 470.140625 596.140625 470.648438 601.511719 471.890625 C 610.601562 473.992188 619.179688 473.21875 626.886719 467.292969 C 629.964844 464.925781 633.671875 464.015625 637.5 463.53125 C 640.4375 463.15625 643.417969 462.796875 646.253906 462 C 654.167969 459.769531 659.414062 454.683594 661.683594 446.679688 C 661.71875 446.546875 661.757812 446.410156 661.796875 446.273438 C 668.171875 448.707031 674.707031 450.800781 681.460938 452.445312 C 687.402344 453.894531 693.554688 454.601562 699.5 453.96875 C 705.429688 453.335938 711.296875 451.269531 716.5 448.023438 C 718.167969 446.984375 719.292969 447.042969 720.972656 448.027344 C 730.921875 453.855469 741.625 455.332031 752.867188 453.054688 C 760.695312 451.46875 768.285156 449.128906 775.699219 446.296875 C 775.964844 447.398438 776.238281 448.503906 776.699219 449.519531 C 780.300781 457.492188 786.671875 461.777344 795.179688 462.820312 C 801.859375 463.636719 808.105469 465.164062 813.757812 469.230469 C 819.230469 473.167969 825.707031 473.625 832.234375 472.503906 C 838.550781 471.425781 844.808594 469.890625 851.292969 470.574219 C 852.722656 470.574219 854.160156 470.683594 855.574219 470.554688 C 859.578125 470.191406 863.671875 470.179688 867.257812 467.921875 C 871.390625 465.3125 872.507812 460.5625 869.191406 457.34375 C 864.757812 453.035156 861.460938 448.074219 858.554688 442.695312 C 856.054688 438.066406 852.007812 435.613281 846.621094 435.621094 C 843.511719 435.625 840.820312 434.546875 838.5625 432.375 C 837.878906 431.71875 837.082031 431.175781 836.34375 430.578125 C 833.023438 427.890625 829.277344 426.789062 825.042969 427.5625 C 818.226562 428.808594 811.480469 430.375 804.773438 432.089844 C 815.902344 425.421875 826.394531 417.75 836.488281 409.492188 C 844.878906 402.625 853.414062 396.015625 863.121094 391.074219 C 874.992188 385.035156 887.320312 383.296875 900.03125 387.730469 C 904.46875 389.277344 908.371094 391.761719 911.621094 394.835938 C 911.347656 395.253906 910.898438 395.570312 910.402344 395.96875 C 908.328125 397.632812 906.882812 399.816406 905.660156 402.160156 C 902.253906 408.710938 899.425781 415.5 897.605469 422.667969 C 896.875 425.542969 896.292969 428.488281 896.59375 431.496094 C 896.953125 435.09375 899.160156 436.539062 902.550781 435.398438 C 903.328125 435.136719 904.074219 434.730469 904.765625 434.285156 C 912.125 429.515625 917.273438 423.121094 919.609375 414.511719 C 920.1875 412.386719 920.109375 410.238281 920.144531 408.007812 C 922.035156 413.570312 922.351562 419.597656 920.675781 425.355469 C 917.851562 435.046875 912.140625 442.339844 901.984375 445.195312 C 892.574219 447.84375 883.394531 443.101562 880.734375 433.941406 C 878.433594 426.019531 880.925781 417.957031 889.644531 415.265625 C 891.113281 414.8125 892.566406 414.296875 893.996094 413.730469 C 894.847656 413.390625 895.363281 412.722656 894.984375 411.746094 C 894.6875 410.984375 894.007812 410.8125 893.238281 410.824219 C 885.929688 410.960938 879.222656 416.320312 877.195312 423.402344 C 873.351562 436.820312 884.503906 452.785156 902.625 448.863281 C 915.429688 446.089844 925.289062 433.109375 925.746094 418.394531 C 925.863281 414.6875 925.320312 411.023438 924.230469 407.519531 C 928.035156 410.355469 932.105469 412.75 936.476562 414.597656 C 939.535156 415.890625 942.710938 417.015625 946.089844 416.96875 C 950.121094 416.914062 951.714844 414.402344 950.0625 410.800781 C 949.472656 409.515625 948.71875 408.277344 947.871094 407.144531 C 943.308594 401.011719 937.605469 396.28125 930.609375 393.148438 C 925.5 390.867188 920.183594 390.027344 914.628906 390.578125 C 914.183594 390.621094 913.722656 390.703125 913.300781 390.828125 C 910.152344 388.050781 906.535156 385.761719 902.550781 384.175781 C 896.875 381.917969 890.941406 381.046875 884.191406 381.078125 C 885.238281 380.644531 885.644531 380.421875 886.078125 380.308594 C 898.894531 376.964844 911.800781 375.730469 924.859375 378.78125 C 934.007812 380.921875 942.550781 384.632812 950.957031 388.675781 C 955.851562 393.234375 959.25 398.828125 961.152344 405.480469 C 961.511719 406.734375 961.941406 407.96875 962.351562 409.207031 C 962.824219 410.640625 963.457031 411.941406 964.171875 413.171875 C 963.71875 413.976562 963.316406 414.84375 963.019531 415.851562 C 962.316406 418.253906 961.675781 420.636719 961.3125 423.125 C 959.742188 433.875 961.78125 443.007812 972.007812 448.867188 C 974.90625 450.527344 977.503906 452.75 978.980469 455.867188 C 981.753906 461.71875 986.464844 464.46875 992.726562 465.128906 C 996.078125 465.480469 999.058594 466.71875 1001.691406 469.054688 C 1007.394531 474.105469 1014.492188 476.617188 1021.445312 479.316406 C 1023.234375 480.011719 1025.152344 480.144531 1027.082031 480.058594 C 1034.304688 479.515625 1041.425781 478.195312 1048.476562 476.65625 C 1054.367188 475.371094 1055.714844 470.167969 1051.707031 465.539062 C 1050.371094 464 1048.777344 462.75 1047.117188 461.585938 C 1044.421875 459.6875 1042.375 457.359375 1041.363281 454.105469 C 1040.300781 450.695312 1037.859375 448.515625 1034.496094 447.378906 C 1033.035156 446.886719 1031.585938 446.339844 1030.089844 445.972656 C 1025.726562 444.90625 1023.011719 442.433594 1022.421875 437.765625 C 1021.730469 432.292969 1018.222656 428.894531 1013.636719 426.378906 C 1010.804688 424.824219 1007.738281 423.871094 1004.671875 422.976562 C 1001.195312 421.957031 998.484375 420.050781 996.578125 416.964844 C 991.609375 408.925781 983.90625 406.472656 975.132812 407.117188 C 971.871094 407.355469 968.882812 408.257812 966.597656 410.191406 C 966.308594 409.550781 966.015625 408.921875 965.796875 408.226562 C 965.121094 406.074219 964.390625 403.941406 963.671875 401.800781 C 962.5625 398.484375 961.070312 395.472656 959.203125 392.761719 C 967.234375 396.832031 975.171875 401.089844 983.523438 404.496094 C 998.792969 410.722656 1014.488281 413.003906 1030.765625 410.175781 C 1030.796875 410.464844 1030.847656 410.761719 1030.902344 411.039062 C 1031.011719 411.605469 1031.335938 412.140625 1031.628906 412.652344 C 1036.492188 421.230469 1042.953125 427.910156 1052.8125 430.5625 C 1053.835938 430.839844 1054.832031 431.25 1055.808594 431.667969 C 1057.273438 432.296875 1058.554688 433.277344 1059.175781 434.734375 C 1061.585938 440.390625 1066.273438 442.007812 1071.851562 442.144531 C 1076.050781 442.25 1080.070312 443.097656 1083.910156 444.863281 C 1085.625 445.65625 1087.410156 446.382812 1089.242188 446.824219 C 1092.007812 447.496094 1094.160156 445.777344 1094.417969 442.910156 C 1094.648438 440.367188 1094.039062 437.964844 1093.195312 435.582031 C 1092.125 432.550781 1091.09375 429.492188 1091.464844 426.207031 C 1092.328125 419.09375 1088.441406 415.042969 1082.566406 412.300781 C 1081.605469 411.851562 1080.582031 411.5 1079.558594 411.222656 C 1075.070312 410 1070.914062 408.1875 1067.019531 405.519531 C 1064.871094 404.050781 1062.585938 403.242188 1060.230469 402.886719 C 1062.453125 402.242188 1064.675781 401.597656 1066.898438 400.949219 C 1084.148438 395.921875 1101.699219 392.996094 1119.695312 395.605469 C 1131.925781 397.382812 1141.867188 403.199219 1148.445312 414.019531 C 1157.148438 428.339844 1152.988281 445.675781 1138.90625 454.199219 C 1133.203125 457.648438 1127.3125 458.113281 1121.160156 455.605469 C 1112.3125 452.003906 1106.792969 443.074219 1107.886719 434.113281 C 1108.519531 428.949219 1112.414062 424.890625 1117.285156 424.316406 C 1121.273438 423.847656 1124.75 426.441406 1126.789062 431.402344 C 1126.972656 431.839844 1127.121094 432.292969 1127.300781 432.734375 C 1127.636719 433.550781 1128.15625 434.300781 1129.121094 434.125 C 1130.410156 433.890625 1130.257812 432.78125 1130.140625 431.839844 C 1129.742188 428.523438 1128.410156 425.660156 1125.800781 423.515625 C 1121.835938 420.253906 1117.433594 419.722656 1112.785156 421.792969 C 1107.667969 424.070312 1104.941406 428.203125 1104.308594 433.695312 C 1103.457031 441.019531 1105.757812 447.386719 1110.753906 452.671875 C 1116.621094 458.886719 1123.804688 462.421875 1132.46875 460.890625 C 1146.277344 458.445312 1157.035156 445.160156 1157.128906 430.679688 C 1157.210938 417.777344 1151.164062 407.929688 1141.277344 400.140625 C 1140.457031 399.5 1139.214844 399.238281 1138.972656 397.878906 C 1153.972656 400.660156 1168.535156 405.300781 1183.753906 406.628906 C 1194.0625 407.527344 1204.355469 408.457031 1214.613281 406.226562 C 1222.199219 404.582031 1229.546875 402.359375 1235.890625 397.605469 C 1248.101562 388.449219 1250.308594 370.238281 1240.542969 358.898438 Z M 1065.75 352.398438 C 1066.390625 347.410156 1068.488281 343.082031 1071.660156 339.261719 C 1072.394531 338.378906 1073.21875 337.183594 1074.566406 337.5625 C 1075.722656 337.886719 1075.835938 339.214844 1076.066406 340.226562 C 1077.324219 345.8125 1078.113281 351.421875 1077.316406 357.183594 C 1076.585938 362.457031 1075.230469 367.269531 1071.804688 370.703125 C 1073.488281 365.351562 1074.285156 359.796875 1074.988281 354.25 C 1075.328125 351.5625 1075.144531 348.808594 1075.707031 346.121094 C 1075.871094 345.332031 1075.574219 344.574219 1074.800781 344.449219 C 1073.953125 344.316406 1073.691406 345.082031 1073.574219 345.832031 C 1073.390625 346.996094 1073.039062 348.152344 1072.976562 349.324219 C 1072.582031 356.902344 1071.097656 364.289062 1069.074219 371.574219 C 1068.933594 372.089844 1068.796875 372.59375 1068.71875 373.105469 C 1068.371094 373.304688 1067.957031 373.457031 1067.578125 373.636719 C 1068.230469 369.101562 1067.804688 364.453125 1065.851562 359.664062 C 1065.617188 359.09375 1065.316406 358.585938 1065.054688 358.035156 C 1065.488281 356.195312 1065.507812 354.273438 1065.75 352.398438 Z M 1036.621094 351.851562 C 1046.5625 351.917969 1054.976562 354.839844 1061.722656 362.105469 C 1057.179688 360.242188 1052.785156 358.785156 1048.808594 356.484375 C 1048.066406 356.058594 1047.253906 355.890625 1046.5 356.535156 C 1048.019531 359.402344 1055.414062 362.867188 1060.660156 363.421875 C 1053.648438 365.554688 1040.996094 359.761719 1036.621094 351.851562 Z M 936.527344 359.386719 C 933.195312 357.714844 932.550781 354.761719 934.515625 351.589844 C 936.089844 349.046875 937.90625 346.605469 942.171875 346.910156 C 946.433594 348.566406 950.769531 346.582031 955.09375 344.507812 C 956.570312 343.796875 958.132812 343.773438 959.609375 344.292969 C 962.242188 345.214844 964.496094 344.582031 966.632812 343 C 967.585938 342.296875 968.566406 341.625 969.539062 340.945312 C 972.128906 339.132812 974.863281 338.5625 977.960938 339.609375 C 980.3125 340.402344 982.746094 340.957031 985.164062 341.53125 C 988.363281 342.285156 991.554688 341.929688 994.664062 341.058594 C 996.734375 340.480469 997.203125 341.449219 997.222656 343.183594 C 997.25 346.03125 995.609375 348.515625 992.878906 349.539062 C 991.773438 349.953125 990.589844 350.148438 989.453125 350.480469 C 987.140625 351.160156 985.429688 352.464844 984.882812 354.964844 C 983.652344 360.554688 980.199219 363.757812 974.632812 365.019531 C 971.582031 365.714844 969.273438 367.980469 966.675781 369.640625 C 961.765625 372.777344 956.46875 374.570312 950.527344 373.429688 C 947.496094 372.847656 945.257812 371.179688 944.234375 368.25 C 943.71875 366.773438 943.011719 365.5 942.199219 364.316406 C 942.496094 364.304688 942.789062 364.269531 943.085938 364.257812 C 942.863281 364.703125 942.960938 365.195312 943.324219 365.5 C 946.242188 367.972656 949.640625 369.617188 953.121094 371.097656 C 953.707031 371.347656 954.28125 371.101562 954.464844 370.242188 C 954.371094 370.007812 954.335938 369.53125 954.105469 369.398438 C 951.023438 367.617188 947.917969 365.875 944.816406 364.128906 C 948.859375 363.871094 952.746094 363.1875 956.507812 362.136719 C 956.621094 362.34375 956.8125 362.507812 957.121094 362.546875 C 961.988281 363.167969 966.792969 364.617188 972.214844 363.804688 C 971.695312 362.449219 971.121094 361.929688 970.207031 361.972656 C 967.9375 362.089844 965.753906 361.355469 963.535156 361.277344 C 962.5625 361.242188 961.625 361.019531 960.683594 360.8125 C 965.636719 359.0625 970.402344 356.761719 975.074219 354.097656 C 976.921875 353.042969 978.765625 351.9375 980.046875 349.882812 C 978.539062 348.222656 977.445312 349.519531 976.398438 350.03125 C 973.640625 351.375 970.921875 352.792969 968.179688 354.171875 C 970.902344 351.761719 975.453125 346.039062 976.28125 344.085938 C 976.589844 343.355469 976.589844 342.714844 975.367188 341.773438 C 972.53125 346.203125 968.527344 349.738281 966.90625 354.796875 C 966.152344 355.167969 965.410156 355.5625 964.648438 355.910156 C 960.425781 357.84375 956.066406 359.289062 951.570312 360.203125 C 953.074219 357.164062 954.65625 354.167969 956.363281 351.234375 C 956.695312 350.660156 957.707031 349.839844 956.5625 349.132812 C 955.648438 348.570312 954.984375 349.285156 954.523438 349.988281 C 952.3125 353.402344 950.429688 356.996094 948.820312 360.730469 C 947.167969 360.96875 945.496094 361.144531 943.796875 361.207031 C 942.386719 361.257812 940.976562 361.332031 939.566406 361.398438 C 938.660156 360.652344 937.675781 359.964844 936.527344 359.386719 Z M 796.691406 347.996094 C 798.308594 343.597656 799.957031 339.207031 802.539062 334.957031 C 804.914062 338.78125 806.308594 342.667969 807.878906 346.476562 C 808.398438 347.734375 807.847656 348.765625 807.265625 349.8125 C 805.867188 352.328125 804.46875 354.871094 802.988281 357.546875 C 803.097656 355.464844 803.316406 353.398438 803.484375 351.328125 C 803.753906 348.035156 803.554688 344.707031 803.554688 341.003906 C 801.589844 341.601562 801.601562 342.851562 801.605469 343.996094 C 801.625 347.808594 801.453125 351.601562 800.921875 355.382812 C 800.875 355.710938 800.90625 356.046875 800.898438 356.382812 C 799.371094 354.246094 798.191406 351.882812 796.75 349.710938 C 796.476562 349.296875 796.503906 348.503906 796.691406 347.996094 Z M 792.910156 371.753906 C 788.257812 365.472656 786.011719 358.269531 785.207031 350.589844 C 784.824219 346.941406 784.753906 343.257812 784.539062 339.589844 C 788.109375 342.566406 790.285156 346.25 792.628906 349.78125 C 795.054688 353.441406 797.1875 357.292969 799.488281 361.035156 C 801.292969 363.96875 803.164062 364.070312 805.179688 361.175781 C 806.320312 359.53125 807.109375 357.636719 808.023438 355.835938 C 810.886719 350.175781 814.429688 345 818.972656 340.554688 C 820.050781 339.5 821.269531 338.589844 822.953125 337.164062 C 823.175781 344.507812 821.988281 350.957031 820.128906 357.289062 C 818.53125 362.734375 815.816406 367.566406 811.628906 371.492188 C 809.382812 373.59375 806.773438 375.003906 803.871094 375.667969 C 810.871094 367.328125 815.890625 358.453125 819.324219 348.644531 C 819.59375 347.878906 819.957031 346.785156 818.238281 346.015625 C 814.304688 356.234375 809.226562 365.742188 802.320312 374.136719 C 801.386719 373.695312 801.246094 372.933594 800.925781 372.34375 C 797.226562 365.464844 793.605469 358.542969 790.308594 351.457031 C 789.765625 350.289062 789.648438 348.605469 787.902344 348.421875 C 787.164062 349.121094 787.179688 349.8125 787.496094 350.503906 C 791.441406 359.066406 795.457031 367.617188 800.628906 376.070312 C 797.484375 375.976562 794.878906 374.414062 792.910156 371.753906 Z M 629.769531 345.988281 C 631.230469 342.386719 632.683594 338.785156 634.847656 334.914062 C 637.542969 339.199219 639.105469 343.519531 640.734375 347.808594 C 641.042969 348.621094 641.003906 349.4375 640.484375 350.179688 C 639.019531 352.28125 637.820312 354.566406 636.308594 356.710938 C 636.667969 352.648438 635.382812 348.558594 635.839844 344.5 C 635.972656 343.320312 636.183594 341.808594 633.90625 341.007812 C 633.460938 347.011719 634.015625 352.683594 635.089844 358.308594 C 635.042969 358.363281 635.007812 358.417969 634.964844 358.472656 C 633.289062 355.410156 631.753906 352.507812 630.121094 349.667969 C 629.417969 348.449219 629.226562 347.332031 629.769531 345.988281 Z M 620.042969 363.78125 C 615.742188 355.691406 614.808594 346.882812 614.339844 337.09375 C 621.070312 342.179688 625.296875 348.117188 628.808594 354.636719 C 629.878906 356.625 630.742188 358.730469 631.917969 360.648438 C 634.035156 364.097656 636.15625 364.070312 638.199219 360.671875 C 641.929688 354.464844 645.605469 348.222656 649.882812 342.363281 C 650.644531 341.324219 651.300781 340.199219 652.960938 339.117188 C 652.40625 347.664062 652.464844 355.78125 649.148438 363.417969 C 648.011719 366.035156 646.878906 368.644531 645.167969 370.96875 C 642.78125 374.203125 640.15625 375.875 637.0625 376.054688 C 637.078125 376.03125 637.101562 376.007812 637.117188 375.984375 C 641.75 367.707031 646.089844 359.277344 649.917969 350.59375 C 650.265625 349.804688 650.4375 348.992188 648.800781 348.109375 C 644.5 356.84375 640.410156 365.675781 635.320312 374.417969 C 631.597656 369.804688 628.6875 365.21875 625.902344 360.53125 C 623.171875 355.9375 621.492188 350.800781 618.753906 345.457031 C 617.382812 350.835938 626.539062 368.21875 633.765625 375.710938 C 632.925781 375.507812 632.058594 375.25 631.148438 374.871094 C 625.921875 372.699219 622.609375 368.605469 620.042969 363.78125 Z M 493.136719 368.378906 C 491.6875 372.160156 487.441406 374.4375 483.285156 373.898438 C 478.316406 373.257812 473.5 372.082031 469.496094 368.726562 C 466.816406 366.484375 463.671875 365.097656 460.332031 364.152344 C 456.703125 363.125 454.113281 360.695312 453.375 357.171875 C 452.410156 352.589844 449.703125 350.660156 445.476562 349.714844 C 442.039062 348.941406 440.324219 346.542969 440.253906 343.386719 C 440.203125 341.183594 440.765625 340.5625 442.9375 341.15625 C 447.972656 342.527344 452.867188 341.902344 457.589844 340.109375 C 462.199219 338.359375 466.128906 339.101562 469.808594 342.253906 C 472.28125 344.371094 475.007812 345.429688 478.355469 344.179688 C 480.085938 343.535156 481.875 344.125 483.503906 344.96875 C 487.160156 346.859375 490.832031 347.84375 495.109375 347.011719 C 499.453125 346.167969 504.039062 350.722656 503.925781 355.363281 C 504.042969 357.21875 502.789062 358.546875 501.117188 359.296875 C 499.902344 359.84375 498.882812 360.542969 497.953125 361.316406 C 496.15625 361.222656 494.355469 361.132812 492.542969 361.109375 C 491.222656 361.09375 489.914062 360.964844 488.613281 360.785156 C 488.097656 359.519531 487.511719 358.277344 486.914062 357.046875 C 485.679688 354.5 484.335938 352.007812 482.699219 349.695312 C 482.261719 349.078125 481.609375 348.671875 480.871094 349.140625 C 479.953125 349.722656 480.660156 350.378906 480.957031 350.945312 C 482.59375 354.082031 484.25 357.207031 485.914062 360.328125 C 483.820312 359.886719 481.753906 359.289062 479.707031 358.597656 C 476.515625 357.527344 473.4375 356.214844 470.414062 354.785156 C 468.511719 349.84375 465.148438 345.945312 462.007812 341.921875 C 461.148438 342.457031 460.925781 342.875 461 343.371094 C 461.179688 344.601562 462.019531 345.507812 462.742188 346.410156 C 464.875 349.082031 466.640625 352.082031 469.382812 354.28125 C 466.671875 352.972656 463.992188 351.589844 461.320312 350.191406 C 460.183594 349.597656 459.039062 348.277344 457.417969 349.78125 C 458.554688 351.941406 460.554688 352.976562 462.4375 354.125 C 467.027344 356.921875 471.785156 359.148438 476.699219 360.847656 C 473.574219 361.386719 470.449219 361.886719 467.265625 361.96875 C 466.382812 361.992188 465.664062 362.316406 465.492188 363.851562 C 470.664062 364.597656 475.472656 363.1875 480.339844 362.550781 C 480.636719 362.511719 480.828125 362.359375 480.945312 362.167969 C 484.632812 363.179688 488.410156 363.894531 492.277344 364.289062 C 489.523438 365.863281 486.800781 367.484375 484.019531 369 C 483.285156 369.402344 482.789062 369.832031 483.121094 370.601562 C 483.492188 371.464844 484.257812 371.203125 484.929688 370.902344 C 487.847656 369.597656 490.644531 368.074219 493.285156 366.277344 C 493.859375 365.886719 494.46875 365.449219 494.496094 364.636719 C 494.476562 364.558594 494.445312 364.539062 494.425781 364.472656 C 494.664062 364.492188 494.90625 364.496094 495.144531 364.511719 C 494.375 365.691406 493.683594 366.953125 493.136719 368.378906 Z M 400.65625 352.230469 C 396.015625 360.214844 382.535156 365.898438 376.484375 363.652344 C 381.226562 363.140625 388.800781 359.691406 390.84375 356.363281 C 385.679688 357.480469 381.171875 360.421875 376.125 361.859375 C 379.910156 356.0625 393.988281 350.515625 400.65625 352.230469 Z M 368.761719 373.226562 C 368.714844 372.730469 368.617188 372.238281 368.46875 371.734375 C 366.898438 366.386719 365.898438 360.925781 365.074219 355.40625 C 364.648438 352.574219 364.96875 349.671875 364.082031 346.921875 C 363.785156 346 364.144531 344.242188 362.695312 344.496094 C 361.097656 344.78125 361.726562 346.445312 361.972656 347.523438 C 362.347656 349.175781 362.257812 350.84375 362.402344 352.5 C 362.957031 358.828125 363.90625 365.082031 365.847656 371.132812 C 363.453125 368.78125 362.058594 365.578125 361.0625 362.179688 C 358.898438 354.816406 359.582031 347.34375 361.503906 340 C 362.324219 336.851562 363.523438 336.625 365.726562 339.1875 C 368.960938 342.953125 371.082031 347.289062 371.695312 352.285156 C 371.925781 354.1875 372.039062 356.121094 372.402344 357.992188 C 369.898438 362.703125 369.078125 367.851562 369.902344 373.308594 C 369.925781 373.476562 369.972656 373.628906 370 373.796875 C 369.570312 373.621094 369.152344 373.4375 368.761719 373.226562 Z M 325.613281 390.457031 C 325.570312 390.367188 325.535156 390.273438 325.488281 390.1875 C 323.910156 387.117188 321.25 385.792969 317.980469 385.582031 C 315.847656 385.441406 313.695312 385.597656 311.558594 385.488281 C 307.679688 385.292969 304.617188 383.683594 303.332031 379.808594 C 301.902344 375.519531 299.019531 372.484375 295.488281 369.933594 C 293.457031 368.460938 291.558594 366.839844 289.917969 364.945312 C 288.914062 363.78125 287.875 362.597656 287.9375 360.707031 C 289.953125 360.429688 291.707031 360.191406 293.464844 359.949219 C 299.761719 359.074219 305.96875 358.78125 311.820312 362.050781 C 313.476562 362.976562 315.371094 363.296875 317.296875 363.457031 C 322.21875 363.859375 326.914062 364.703125 330.273438 369.011719 C 331.582031 370.691406 333.6875 371.5625 335.816406 372.054688 C 344.351562 374.035156 349.117188 379.796875 351.660156 387.824219 C 352.09375 389.1875 352.609375 390.523438 353.121094 391.855469 C 351.109375 391.414062 349.132812 390.902344 347.195312 390.308594 C 345.96875 386.832031 344.703125 383.371094 343.359375 379.652344 C 342.402344 380.160156 341.804688 380.4375 341.878906 380.90625 C 342.351562 383.878906 343.414062 386.660156 344.554688 389.414062 C 342.296875 388.597656 340.105469 387.648438 338.015625 386.492188 C 337.828125 386.089844 337.613281 385.609375 337.367188 385.136719 C 335.164062 380.9375 332.972656 376.734375 330.320312 372.792969 C 330.058594 372.40625 329.820312 371.996094 329.535156 371.628906 C 329.183594 371.179688 328.667969 371.175781 328.277344 371.460938 C 328.042969 371.628906 327.84375 372.125 327.921875 372.386719 C 328.117188 373.058594 328.4375 373.707031 328.785156 374.324219 C 330.613281 377.597656 332.460938 380.863281 334.308594 384.128906 C 332.789062 383.039062 331.324219 381.847656 329.945312 380.476562 C 327.621094 378.167969 325.054688 376.289062 322.261719 374.757812 C 320.160156 371.519531 318.03125 368.300781 315.871094 365.097656 C 315.515625 364.5625 314.910156 364.398438 314.324219 364.789062 C 313.671875 365.226562 313.898438 365.753906 314.230469 366.304688 C 315.636719 368.644531 317.152344 370.914062 318.769531 373.105469 C 318.214844 372.882812 317.679688 372.625 317.105469 372.425781 C 313.292969 371.117188 309.628906 369.441406 306.664062 366.554688 C 306.011719 365.917969 305.207031 364.886719 304.28125 365.828125 C 303.1875 366.945312 304.390625 367.757812 305.113281 368.460938 C 307.167969 370.457031 309.46875 372.082031 311.988281 373.320312 C 309.894531 373.296875 307.804688 373.226562 305.734375 372.777344 C 304.765625 372.570312 303.820312 372.703125 303.113281 374.25 C 307.371094 375.921875 311.625 375.445312 315.8125 375.476562 C 316.253906 375.480469 316.84375 375.585938 317.292969 375.46875 C 320.820312 376.871094 323.964844 378.863281 326.824219 381.308594 C 324.003906 381.109375 321.277344 381.378906 318.59375 381.265625 C 317.699219 381.226562 317.019531 381.570312 316.921875 382.59375 C 319.132812 383.558594 325.023438 383.746094 328.785156 383.042969 C 328.804688 383.058594 328.820312 383.070312 328.835938 383.085938 C 332.453125 386.574219 336.542969 389.136719 341.050781 390.929688 C 335.914062 390.496094 330.769531 390.347656 325.613281 390.457031 Z M 389.34375 401.460938 C 389.078125 401.820312 388.984375 401.558594 388.863281 401.398438 C 389.023438 401.417969 389.183594 401.441406 389.34375 401.460938 Z M 400.507812 414.363281 C 396.777344 420.535156 391.488281 424.703125 384.617188 426.863281 C 383.488281 427.21875 382.382812 427.65625 381.269531 428.066406 C 378.484375 429.089844 376.246094 430.742188 375.054688 433.574219 C 373.644531 436.914062 371.023438 438.3125 367.519531 438.5625 C 361.347656 439 355.230469 439.75 349.675781 442.839844 C 349.265625 443.066406 348.808594 443.234375 348.351562 443.355469 C 346.789062 443.777344 346.046875 443.042969 346.136719 441.535156 C 346.191406 440.597656 346.425781 439.644531 346.746094 438.757812 C 348.5625 433.679688 349.792969 428.523438 349.519531 423.058594 C 349.398438 420.59375 350.875 418.84375 352.769531 417.421875 C 355.390625 415.457031 358.410156 414.328125 361.515625 413.578125 C 364.933594 412.75 367.976562 411.335938 370.789062 409.246094 C 373 407.605469 375.523438 406.730469 378.25 406.089844 C 380.957031 405.453125 383.433594 406.335938 386.015625 406.300781 C 386.628906 406.292969 387.367188 406.425781 387.765625 405.953125 C 389.824219 406.53125 391.890625 407.085938 393.964844 407.605469 C 391.738281 408.304688 389.546875 409.089844 387.457031 410.085938 C 382.984375 409.425781 378.511719 408.804688 373.882812 409.867188 C 377.191406 411.773438 380.871094 411.484375 384.457031 411.738281 C 383.203125 412.535156 382.003906 413.433594 380.894531 414.511719 C 378.027344 417.285156 375.027344 419.796875 371.683594 421.761719 C 371.519531 421.660156 371.347656 421.566406 371.183594 421.476562 C 370.984375 421.363281 370.722656 421.375 370.5 421.296875 C 365.769531 419.699219 360.859375 419.167969 355.914062 418.90625 C 355.347656 418.878906 354.730469 419.101562 354.660156 419.972656 C 354.941406 420.863281 355.890625 420.957031 356.609375 421.09375 C 358.109375 421.371094 359.675781 421.300781 361.175781 421.585938 C 363.769531 422.074219 366.34375 422.65625 368.921875 423.226562 C 367.429688 423.917969 365.867188 424.492188 364.214844 424.929688 C 362.976562 425.253906 361.792969 425.871094 360.667969 426.503906 C 357.824219 428.097656 355.5 430.269531 353.851562 433.117188 C 353.457031 433.800781 352.675781 434.5625 353.640625 435.289062 C 354.660156 436.050781 355.082031 435.035156 355.550781 434.398438 C 357.585938 431.621094 360.164062 429.65625 363.101562 428.234375 C 362.132812 430.554688 361.304688 432.914062 361.871094 435.578125 C 362.3125 435.601562 362.683594 435.710938 362.753906 435.613281 C 364.5 433.066406 365.03125 430.109375 365.664062 427.191406 C 366.164062 427.011719 366.636719 426.800781 367.15625 426.652344 C 372.644531 425.0625 377.214844 422.019531 381.140625 417.90625 C 383.71875 415.207031 386.8125 413.253906 390.277344 411.882812 C 391.832031 411.265625 393.394531 410.667969 394.949219 410.046875 C 392.640625 413.25 390.320312 418.652344 390.625 421.128906 C 393.394531 418.726562 396.496094 412.515625 396.933594 409.230469 C 397.121094 409.152344 397.316406 409.082031 397.503906 408.996094 C 397.785156 408.871094 398.097656 408.773438 398.414062 408.664062 C 400.066406 409.03125 401.726562 409.359375 403.390625 409.667969 C 402.460938 411.253906 401.453125 412.789062 400.507812 414.363281 Z M 472.445312 434.796875 C 471.519531 438.988281 469.441406 442.21875 465.765625 444.453125 C 460.804688 447.472656 456.660156 451.292969 454.027344 456.601562 C 452.90625 458.863281 450.976562 460.214844 448.558594 460.828125 C 446.722656 461.296875 444.882812 461.804688 443.015625 462.085938 C 439.636719 462.59375 436.683594 463.824219 434.109375 466.15625 C 428.617188 471.136719 421.640625 473.371094 414.984375 476.148438 C 413.335938 476.835938 411.453125 476.46875 408.886719 476.554688 C 402.90625 476.082031 396.308594 474.539062 389.664062 473.34375 C 386.640625 472.800781 386.109375 470.847656 387.960938 468.386719 C 389.039062 466.949219 390.441406 465.832031 391.910156 464.800781 C 395.285156 462.421875 398.050781 459.542969 399.316406 455.476562 C 400.132812 452.855469 401.953125 451.34375 404.519531 450.570312 C 406.5625 449.953125 408.585938 449.285156 410.59375 448.566406 C 414.894531 447.035156 417.472656 444.03125 418.085938 439.460938 C 418.753906 434.507812 421.636719 431.300781 425.953125 429.171875 C 428.839844 427.746094 431.945312 426.921875 434.984375 425.933594 C 438.65625 424.742188 441.589844 422.613281 443.464844 419.265625 C 446.664062 413.542969 451.761719 410.878906 457.953125 410.1875 C 461.054688 409.839844 465.605469 410.921875 468.667969 413.730469 C 467.640625 414.964844 466.433594 416.050781 464.898438 416.859375 C 460.140625 419.355469 456.953125 423.085938 454.960938 428.046875 C 454.101562 430.1875 452.988281 432.007812 451.671875 433.582031 C 451.355469 433.503906 450.992188 433.484375 450.664062 433.421875 C 444.320312 432.226562 437.925781 432.800781 431.542969 432.851562 C 430.992188 432.855469 430.753906 433.300781 430.414062 433.835938 C 430.808594 434.410156 431.074219 434.820312 431.609375 434.84375 C 437.6875 435.132812 443.800781 434.511719 449.855469 435.457031 C 447.195312 437.8125 443.867188 439.339844 439.839844 440.011719 C 431.46875 441.410156 424.835938 445.558594 420.230469 452.863281 C 419.503906 454.015625 418.695312 455.054688 417.84375 456.042969 C 415.082031 456.699219 412.265625 456.203125 410.484375 456.410156 C 407.09375 456.410156 404.722656 456.398438 402.351562 456.421875 C 401.769531 456.425781 401.113281 456.449219 401.039062 457.253906 C 400.949219 458.195312 401.574219 458.5 402.351562 458.511719 C 405.671875 458.558594 408.996094 458.640625 412.3125 458.574219 C 413.324219 458.550781 414.347656 458.613281 415.363281 458.570312 C 411.949219 461.582031 407.839844 463.640625 403.21875 464.933594 C 400.605469 465.664062 397.964844 466.285156 395.335938 466.957031 C 394.652344 467.132812 393.769531 467.222656 393.890625 468.171875 C 394.03125 469.257812 394.953125 469.324219 395.824219 469.191406 C 396.988281 469.015625 398.144531 468.765625 399.304688 468.546875 C 408.808594 466.738281 417.25 463.113281 422.703125 454.550781 C 424.421875 451.847656 426.476562 449.667969 428.796875 447.914062 C 427.917969 453.691406 427.128906 459.484375 425.398438 465.097656 C 425.132812 465.957031 424.839844 466.921875 425.769531 467.71875 C 427.507812 467.429688 427.410156 465.796875 427.753906 464.707031 C 429.59375 458.828125 430.507812 452.757812 431.246094 446.65625 C 431.261719 446.519531 431.265625 446.394531 431.273438 446.269531 C 434.074219 444.640625 437.199219 443.511719 440.628906 442.851562 C 448.433594 441.351562 454.015625 436.96875 457.183594 429.703125 C 458.257812 427.230469 459.675781 425.152344 461.429688 423.382812 C 461.160156 425.867188 461.957031 428.414062 461.628906 430.898438 C 461.140625 434.546875 460.371094 438.238281 461.257812 441.9375 C 462.613281 441.945312 462.984375 441.195312 463.003906 440.332031 C 463.160156 434.242188 464.589844 428.128906 462.933594 422.046875 C 464.074219 421.125 465.292969 420.273438 466.703125 419.574219 C 468.3125 418.777344 469.660156 417.714844 470.84375 416.5 C 471.175781 417.144531 471.457031 417.832031 471.640625 418.585938 C 472.949219 423.976562 473.660156 429.285156 472.445312 434.796875 Z M 490.550781 413.242188 C 492.414062 404.164062 510.054688 392.667969 520.425781 393.773438 C 520.011719 394.71875 519.445312 395.679688 518.804688 396.636719 C 513.152344 397.691406 507.777344 399.527344 502.910156 402.730469 C 502.613281 402.925781 502.347656 403.167969 502.089844 403.410156 C 501.703125 403.773438 501.566406 404.25 501.878906 404.675781 C 502.148438 405.035156 502.53125 405.378906 503.082031 405.078125 C 503.703125 404.738281 504.335938 404.417969 504.957031 404.078125 C 508.65625 402.058594 512.5 400.476562 516.589844 399.519531 C 509.945312 407.101562 497.933594 413.855469 490.550781 413.242188 Z M 536.988281 431.949219 C 525.59375 429.625 517.789062 412.863281 521.480469 401.773438 C 522.230469 404.21875 523.171875 406.566406 524.425781 408.777344 C 526.066406 411.679688 526.921875 415.183594 530.199219 416.871094 C 530.601562 415.074219 529.742188 413.914062 529.109375 412.683594 C 526.738281 408.054688 524.242188 403.472656 523.160156 398.324219 C 523.277344 398.144531 523.367188 397.941406 523.496094 397.769531 C 530.410156 402.394531 538.640625 423.25 536.988281 431.949219 Z M 645 458.648438 C 642.582031 459.261719 640.136719 459.707031 637.65625 459.992188 C 633.007812 460.527344 628.492188 461.59375 624.707031 464.523438 C 618.28125 469.5 611.117188 470.253906 603.425781 468.695312 C 598.070312 467.609375 592.691406 466.574219 588.085938 467.035156 C 584.910156 467.035156 582.648438 467.027344 580.386719 467.035156 C 577.976562 467.046875 575.644531 466.566406 573.441406 465.648438 C 569.289062 463.921875 568.730469 461.535156 571.953125 458.511719 C 575.660156 455.039062 578.546875 451.039062 580.804688 446.515625 C 581.492188 445.140625 582.34375 443.828125 583.269531 442.59375 C 584.6875 440.703125 586.664062 439.335938 588.988281 439.347656 C 594.5625 439.371094 599.042969 437.261719 603.074219 433.511719 C 605.8125 430.960938 609.222656 430.128906 613.011719 431.136719 C 624.453125 434.175781 636.316406 435.613281 647.316406 440.324219 C 647.824219 440.539062 648.398438 440.757812 648.914062 440.742188 C 650.574219 441.53125 652.234375 442.328125 653.921875 443.066406 C 652.71875 442.867188 651.523438 442.730469 650.339844 442.675781 C 650.355469 442.511719 650.394531 442.359375 650.402344 442.191406 C 650.234375 442.347656 650.085938 442.515625 649.925781 442.671875 C 645.210938 442.53125 640.65625 443.550781 636.214844 445.632812 C 635.898438 445.34375 635.425781 445.1875 635.007812 445.0625 C 629.621094 443.453125 624.207031 441.917969 618.824219 440.289062 C 617.933594 440.019531 617.132812 439.773438 616.816406 440.847656 C 616.554688 441.738281 617.453125 442.066406 618.058594 442.285156 C 623.015625 444.085938 628.089844 445.601562 633.441406 446.953125 C 627.417969 449.789062 621.199219 450.570312 614.578125 448.242188 C 610.800781 446.914062 606.957031 447.03125 603.195312 448.140625 C 599.007812 446.003906 590.449219 445.011719 587.945312 446.777344 C 592.078125 447.480469 596.144531 448.664062 600.578125 449.058594 C 593.4375 452.03125 586.765625 456.214844 578.359375 457.214844 C 579.730469 459.6875 581.25 459.195312 582.742188 458.957031 C 587.558594 458.1875 591.972656 456.296875 596.289062 454.1875 C 593.847656 456.652344 591.664062 459.324219 589.972656 462.40625 C 589.546875 463.179688 589.226562 463.890625 589.867188 464.789062 C 590.660156 464.957031 591.078125 464.683594 591.328125 464.28125 C 593.648438 460.523438 596.421875 457.128906 599.464844 453.941406 C 599.898438 453.488281 600.316406 452.992188 600.015625 452.425781 C 604.941406 450.355469 610.007812 449.757812 615.230469 451.488281 C 617.09375 452.105469 618.925781 452.457031 620.734375 452.609375 C 618.898438 453.871094 617.097656 455.179688 615.367188 456.585938 C 613.433594 458.15625 611.386719 459.605469 609.710938 461.484375 C 609.023438 462.253906 608.933594 462.890625 609.875 463.40625 C 610.632812 463.5625 611 463.019531 611.445312 462.664062 C 613.496094 461.046875 615.5 459.367188 617.589844 457.804688 C 619.957031 456.03125 622.382812 454.335938 624.773438 452.59375 C 628.097656 452.273438 631.328125 451.234375 634.46875 449.578125 C 638.703125 447.34375 643.007812 445.941406 647.472656 445.570312 C 645.492188 448.363281 644.042969 451.476562 642.132812 454.277344 C 643.425781 455.304688 644.246094 455.042969 644.785156 454.054688 C 646.367188 451.175781 648.59375 448.601562 649.714844 445.488281 C 651.914062 445.484375 654.148438 445.703125 656.441406 446.238281 C 657.070312 446.382812 657.914062 446.558594 658.519531 446.316406 C 656.039062 452.601562 651.746094 456.9375 645 458.648438 Z M 667.617188 412.542969 C 664.382812 406.695312 663.746094 400.710938 665.890625 394.335938 C 667.394531 389.871094 668.585938 385.304688 669.988281 380.519531 C 674.671875 383.601562 677.777344 387.652344 678.609375 393.078125 C 679.585938 399.472656 681.914062 405.15625 686.019531 410.15625 C 689.449219 414.335938 690.207031 419.019531 688.535156 424.210938 C 686.78125 429.664062 685.75 435.222656 686.46875 441.03125 C 686.570312 441.851562 686.765625 442.644531 686.996094 443.445312 C 684.496094 439.296875 683.492188 434.570312 682.9375 429.621094 C 682.785156 428.25 682.574219 426.886719 682.320312 425.53125 C 682.402344 425.507812 682.511719 425.535156 682.574219 425.476562 C 684.28125 423.722656 685.820312 421.824219 686.949219 419.71875 C 686.660156 418.890625 686.238281 418.105469 685.449219 418.746094 C 683.925781 419.976562 682.835938 421.574219 681.824219 423.234375 C 681.222656 420.855469 680.371094 418.546875 679.046875 416.398438 C 678.992188 416.304688 678.945312 416.210938 678.886719 416.117188 C 679.003906 416.097656 679.117188 416.082031 679.230469 416.066406 C 679.230469 412.132812 679.230469 408.203125 679.230469 404.28125 C 677.570312 404.148438 677.273438 405.101562 677.367188 406.089844 C 677.582031 408.382812 677.0625 410.777344 677.285156 413.074219 C 675.210938 408.582031 674.308594 403.808594 674.519531 398.710938 C 674.652344 395.503906 674.40625 392.289062 673.292969 389.226562 C 673.027344 388.496094 672.914062 387.425781 671.75 387.652344 C 670.542969 387.886719 670.785156 388.96875 671.007812 389.671875 C 671.964844 392.714844 671.441406 395.832031 671.6875 399.757812 C 671.675781 399.8125 671.675781 399.871094 671.667969 399.925781 C 669.855469 397.890625 667.636719 397.078125 665.515625 397.792969 C 667.539062 399.34375 669.316406 400.933594 671.46875 401.867188 C 671.136719 407.664062 673.289062 413.429688 676.742188 418.875 C 678.546875 421.714844 679.550781 424.871094 680.128906 428.164062 C 680.292969 429.089844 680.429688 430.015625 680.574219 430.941406 C 678.933594 429.679688 677.097656 428.730469 675.140625 428.003906 C 674.707031 427.839844 674.273438 428.289062 674.03125 428.726562 C 673.730469 429.28125 674.082031 429.648438 674.484375 429.894531 C 676.605469 431.195312 678.734375 432.484375 680.882812 433.738281 C 680.949219 433.777344 680.988281 433.769531 681.046875 433.796875 C 681.238281 434.957031 681.421875 436.121094 681.667969 437.269531 C 682.4375 440.875 683.96875 444.105469 686.292969 446.882812 C 678.273438 442.582031 673.21875 436.617188 672.289062 427.390625 C 671.757812 422.140625 670.167969 417.15625 667.617188 412.542969 Z M 718.441406 440.765625 C 713.644531 435.023438 709.746094 428.707031 707.695312 421.425781 C 705.011719 411.90625 704.304688 402.238281 706.714844 392.53125 C 707.917969 387.691406 709.78125 383.265625 714.769531 380.992188 C 719.882812 378.660156 724.164062 379.472656 727.925781 383.648438 C 731.378906 387.480469 732.773438 392.234375 732.808594 397.125 C 732.910156 411.882812 730.542969 426.042969 721.164062 438.148438 C 720.453125 439.066406 719.921875 440.167969 718.441406 440.765625 Z M 751.816406 409.589844 C 755.742188 404.890625 757.84375 399.46875 758.777344 393.464844 C 759.640625 387.898438 762.648438 383.695312 767.558594 380.472656 C 769.199219 386.421875 770.746094 392.105469 772.34375 397.777344 C 773.5 401.878906 773.003906 405.859375 771.160156 409.574219 C 768.019531 415.894531 765.671875 422.40625 764.765625 429.453125 C 763.675781 437.933594 758.328125 442.972656 751.1875 446.917969 C 754.449219 443.125 755.796875 438.515625 756.472656 433.71875 C 759.042969 432.351562 761.582031 431.003906 764.136719 428.796875 C 760.863281 427.367188 759.1875 429.699219 757.242188 430.722656 C 757.132812 430.777344 757.011719 430.839844 756.894531 430.898438 C 757.75 425.71875 759.210938 420.785156 762.148438 416.257812 C 764.945312 411.941406 766.03125 407.09375 765.933594 401.929688 C 768.410156 401.042969 771.023438 398.742188 771.027344 397.015625 C 768.929688 397.511719 767.230469 398.453125 765.871094 399.730469 C 765.734375 396.328125 765.589844 392.890625 766.515625 389.410156 C 766.496094 388.886719 766.816406 388.03125 765.9375 387.710938 C 764.816406 387.300781 764.554688 388.214844 764.257812 389.007812 C 762.9375 392.53125 762.847656 396.222656 762.929688 399.902344 C 763.054688 405.398438 761.882812 410.542969 759.027344 415.238281 C 757.457031 417.816406 756.433594 420.554688 755.699219 423.382812 C 754.75 421.820312 753.675781 420.351562 752.40625 419.03125 C 752.179688 418.796875 751.839844 418.671875 751.609375 418.53125 C 750.859375 418.722656 750.394531 419.207031 750.652344 419.800781 C 751.59375 421.972656 753.246094 423.660156 754.773438 425.410156 C 754.886719 425.539062 755.03125 425.585938 755.179688 425.601562 C 754.886719 427.082031 754.640625 428.578125 754.46875 430.09375 C 753.933594 434.867188 752.917969 439.433594 750.480469 443.445312 C 750.695312 442.78125 750.886719 442.113281 750.976562 441.425781 C 751.734375 435.746094 750.929688 430.222656 749.15625 424.921875 C 747.230469 419.175781 748.007812 414.15625 751.816406 409.589844 Z M 790.277344 440.257812 C 800.816406 435.679688 812.265625 434.472656 823.191406 431.328125 C 828.152344 429.898438 832.328125 431.195312 835.917969 434.703125 C 839.074219 437.785156 842.859375 439.15625 847.199219 439.207031 C 850.410156 439.246094 852.917969 440.640625 854.710938 443.285156 C 855.445312 444.367188 856.164062 445.476562 856.738281 446.644531 C 858.921875 451.066406 861.660156 455.066406 865.386719 458.339844 C 865.921875 458.808594 866.394531 459.355469 866.847656 459.90625 C 868.023438 461.34375 867.882812 462.699219 866.574219 464.007812 C 865.347656 465.230469 863.828125 465.90625 862.203125 466.292969 C 860.125 466.785156 858.027344 467.089844 855.855469 467.0625 C 848.851562 466.976562 841.855469 466.855469 834.941406 468.53125 C 826.683594 470.535156 818.925781 469.515625 812.019531 464.078125 C 808.632812 461.414062 804.484375 460.703125 800.371094 460.019531 C 798.382812 459.691406 796.363281 459.53125 794.382812 459.152344 C 787.785156 457.902344 782.792969 454.410156 779.78125 448.3125 C 779.460938 447.667969 779.226562 446.980469 779.003906 446.289062 C 779.773438 446.574219 780.972656 446.171875 781.875 446.085938 C 781.988281 446.074219 782.097656 445.996094 782.214844 445.976562 C 784.019531 445.695312 785.8125 445.53125 787.589844 445.492188 C 789.097656 448.652344 791.148438 451.507812 792.996094 454.476562 C 793.351562 455.046875 794.066406 455.128906 794.582031 454.839844 C 795.4375 454.359375 795.03125 453.65625 794.660156 453.035156 C 793.160156 450.539062 791.660156 448.039062 790.15625 445.542969 C 793.367188 445.742188 796.519531 446.460938 799.589844 447.988281 C 801.707031 449.042969 803.875 450.011719 806.074219 450.875 C 808.292969 451.746094 810.535156 452.402344 812.820312 452.660156 C 814.890625 454.128906 816.984375 455.566406 819.011719 457.09375 C 821.386719 458.875 823.65625 460.792969 825.988281 462.628906 C 826.582031 463.097656 827.1875 464.085938 828.03125 463.046875 C 828.835938 462.050781 827.710938 461.625 827.269531 461.019531 C 827.132812 460.828125 826.9375 460.679688 826.761719 460.519531 C 823.617188 457.65625 820.269531 455.054688 816.78125 452.648438 C 817.605469 452.550781 818.433594 452.410156 819.269531 452.171875 C 821.429688 451.5625 823.636719 451.082031 825.847656 450.699219 C 829.96875 449.992188 833.769531 450.921875 837.4375 452.449219 C 837.171875 453.015625 837.566406 453.484375 837.992188 453.933594 C 841.03125 457.121094 843.8125 460.511719 846.128906 464.273438 C 846.378906 464.675781 846.796875 464.941406 847.59375 464.804688 C 848.035156 464.195312 848.113281 463.601562 847.828125 463.046875 C 846.097656 459.667969 843.75 456.78125 841.117188 454.128906 C 845.523438 456.253906 850.007812 458.160156 854.875 458.996094 C 856.25 459.230469 857.714844 459.695312 858.695312 457.945312 C 858.363281 457.171875 857.910156 457.027344 857.441406 456.957031 C 851.371094 456.042969 845.921875 453.394531 840.570312 450.625 C 839.296875 449.96875 838.015625 449.441406 836.734375 448.984375 C 841.28125 448.765625 848.007812 447.449219 849.441406 446.222656 C 846.554688 444.878906 837.375 446.175781 834.054688 448.179688 C 829.582031 447.09375 825.027344 447.238281 820.3125 448.816406 C 817.476562 449.765625 814.683594 449.949219 811.921875 449.511719 C 811.886719 449.492188 811.832031 449.460938 811.800781 449.445312 C 811.734375 449.441406 811.710938 449.464844 811.652344 449.464844 C 810.027344 449.1875 808.414062 448.699219 806.8125 448.015625 C 805.914062 447.636719 805 447.292969 804.09375 446.929688 C 809.273438 445.632812 814.382812 444.105469 819.402344 442.285156 C 820.007812 442.066406 820.90625 441.738281 820.644531 440.847656 C 820.328125 439.773438 819.527344 440.015625 818.640625 440.289062 C 814.160156 441.667969 809.652344 442.957031 805.15625 444.285156 C 804.035156 444.617188 802.90625 444.9375 801.8125 445.339844 C 801.617188 445.414062 801.4375 445.519531 801.277344 445.644531 C 797.097656 443.65625 792.796875 442.640625 788.355469 442.660156 C 788.066406 442.355469 787.660156 442.160156 786.914062 442.207031 C 786.859375 442.371094 786.769531 442.535156 786.699219 442.695312 C 785.65625 442.757812 784.609375 442.894531 783.550781 443.070312 C 784.558594 442.628906 785.578125 442.226562 786.574219 441.765625 C 787.285156 441.4375 787.976562 441.078125 788.679688 440.742188 C 789.199219 440.71875 789.765625 440.480469 790.277344 440.257812 Z M 900.703125 432.011719 C 898.324219 424.4375 907.070312 402.054688 914.078125 397.785156 C 914.171875 397.925781 914.234375 398.085938 914.324219 398.230469 C 913.171875 403.613281 910.554688 408.382812 908.0625 413.21875 C 907.515625 414.277344 906.566406 415.332031 906.910156 416.761719 C 909.4375 416.363281 913.359375 409.675781 915.957031 401.785156 C 919.570312 412.9375 912.351562 428.511719 900.703125 432.011719 Z M 947.15625 413.242188 C 939.480469 413.808594 927.464844 407.066406 920.871094 399.53125 C 925.183594 400.574219 929.214844 402.167969 933.023438 404.402344 C 933.804688 404.859375 934.769531 405.761719 935.503906 404.742188 C 936.296875 403.640625 935.09375 403.136719 934.324219 402.621094 C 929.542969 399.40625 924.210938 397.695312 918.644531 396.628906 C 918.003906 395.664062 917.441406 394.695312 917.039062 393.742188 C 927.417969 392.785156 943.34375 403 947.15625 413.242188 Z M 974.261719 410.730469 C 981.167969 408.726562 989.898438 412.230469 992.976562 417.808594 C 995.683594 422.71875 999.867188 425.511719 1005.179688 426.859375 C 1007.367188 427.414062 1009.488281 428.1875 1011.515625 429.179688 C 1015.839844 431.292969 1018.714844 434.519531 1019.378906 439.46875 C 1019.992188 444.039062 1022.582031 447.027344 1026.875 448.578125 C 1027.542969 448.820312 1028.207031 449.117188 1028.894531 449.253906 C 1034.019531 450.253906 1037.808594 452.640625 1039.375 458.070312 C 1040.226562 461.023438 1042.902344 462.785156 1045.285156 464.578125 C 1046.808594 465.730469 1048.359375 466.859375 1049.511719 468.394531 C 1051.359375 470.859375 1050.796875 472.613281 1047.792969 473.375 C 1045.386719 473.980469 1042.910156 474.347656 1040.445312 474.691406 C 1036.105469 475.296875 1031.871094 476.664062 1027.179688 476.496094 C 1024 476.808594 1020.867188 475.878906 1017.820312 474.371094 C 1012.089844 471.535156 1006.082031 469.234375 1001.363281 464.621094 C 999.636719 462.929688 997.132812 462.578125 994.792969 462.132812 C 993.046875 461.800781 991.289062 461.507812 989.566406 461.078125 C 986.796875 460.390625 984.511719 458.941406 983.222656 456.300781 C 980.730469 451.1875 976.777344 447.480469 971.96875 444.671875 C 967.066406 441.808594 965.070312 437.28125 964.492188 431.988281 C 963.980469 427.332031 964.652344 422.765625 965.933594 418.234375 C 966.117188 417.570312 966.367188 416.980469 966.640625 416.421875 C 968.015625 417.859375 969.59375 419.113281 971.539062 420.050781 C 972.640625 420.578125 973.621094 421.21875 974.535156 421.917969 C 972.800781 428.082031 974.351562 434.308594 974.484375 440.492188 C 974.503906 441.371094 975.011719 442.066406 976.265625 441.878906 C 977.035156 438.269531 976.347656 434.664062 975.84375 431.089844 C 975.476562 428.511719 976.375 425.839844 976.046875 423.261719 C 977.648438 424.84375 978.941406 426.710938 979.914062 428.90625 C 981.121094 431.628906 982.617188 434.144531 984.636719 436.398438 C 988.34375 440.539062 993.257812 442.203125 998.386719 443.292969 C 1001.230469 443.894531 1003.820312 444.867188 1006.160156 446.195312 C 1006.164062 446.238281 1006.132812 446.261719 1006.140625 446.304688 C 1007.058594 453.089844 1007.992188 459.878906 1010.238281 466.386719 C 1010.476562 467.082031 1010.835938 468.027344 1011.964844 467.539062 C 1012.351562 466.976562 1012.382812 466.351562 1012.214844 465.796875 C 1010.6875 460.695312 1009.875 455.453125 1008.953125 450.226562 C 1008.820312 449.46875 1008.828125 448.683594 1008.753906 447.910156 C 1010.839844 449.511719 1012.679688 451.46875 1014.210938 453.867188 C 1020.605469 463.878906 1030.433594 467.574219 1041.519531 469.113281 C 1042.3125 469.242188 1043.277344 469.410156 1043.527344 468.320312 C 1043.8125 467.058594 1042.667969 467.140625 1041.9375 466.914062 C 1041.261719 466.703125 1040.566406 466.5625 1039.875 466.417969 C 1033.183594 465.039062 1027.132812 462.703125 1022.203125 458.503906 C 1026.367188 458.648438 1030.53125 458.804688 1034.699219 458.535156 C 1035.523438 458.484375 1036.535156 458.53125 1036.414062 457.3125 C 1036.296875 456.074219 1035.199219 456.4375 1034.457031 456.421875 C 1032.085938 456.375 1029.710938 456.402344 1026.414062 456.402344 C 1024.777344 456.199219 1022.199219 456.679688 1019.671875 456.054688 C 1018.4375 454.707031 1017.269531 453.257812 1016.238281 451.574219 C 1012.046875 444.765625 1005.433594 441.355469 997.78125 440.058594 C 993.714844 439.371094 990.386719 437.839844 987.71875 435.503906 C 993.21875 434.503906 998.769531 435.085938 1004.292969 434.914062 C 1005.339844 434.882812 1006.488281 435.132812 1007.015625 433.847656 C 1006.789062 433.246094 1006.378906 432.8125 1005.71875 432.816406 C 999.453125 432.828125 993.171875 432.234375 986.945312 433.410156 C 986.597656 433.476562 986.175781 433.472656 985.816406 433.554688 C 984.390625 431.859375 983.191406 429.878906 982.265625 427.546875 C 980.441406 422.945312 977.421875 419.4375 973.003906 417.128906 C 971.277344 416.222656 969.871094 415.042969 968.714844 413.65625 C 970.242188 412.246094 972.167969 411.335938 974.261719 410.730469 Z M 1048.582031 401.378906 C 1048.453125 401.480469 1048.320312 401.585938 1048.191406 401.691406 C 1048.128906 401.25 1048.375 401.347656 1048.582031 401.378906 Z M 1051.253906 406.304688 C 1051.964844 406.316406 1052.699219 406.328125 1053.386719 406.179688 C 1058.511719 405.0625 1063.007812 406.542969 1067.09375 409.546875 C 1069.722656 411.480469 1072.582031 412.777344 1075.757812 413.527344 C 1078.292969 414.125 1080.746094 415.046875 1083.046875 416.324219 C 1086.46875 418.21875 1088.398438 420.902344 1088.027344 425.007812 C 1087.703125 428.632812 1088.597656 432.09375 1089.667969 435.519531 C 1090.164062 437.105469 1090.59375 438.710938 1091.09375 440.296875 C 1091.386719 441.238281 1091.632812 442.21875 1090.910156 443.007812 C 1089.960938 444.046875 1088.875 443.363281 1087.984375 442.882812 C 1082.296875 439.804688 1076.082031 438.996094 1069.785156 438.539062 C 1066.445312 438.296875 1063.867188 436.96875 1062.511719 433.746094 C 1061.273438 430.796875 1058.953125 429.066406 1056.058594 427.988281 C 1054.609375 427.453125 1053.171875 426.894531 1051.710938 426.402344 C 1046.113281 424.523438 1041.597656 421.203125 1038.296875 416.285156 C 1036.839844 414.113281 1035.441406 411.898438 1034.078125 409.664062 C 1034.058594 409.632812 1034.035156 409.605469 1034.011719 409.570312 C 1035.589844 409.25 1037.160156 408.902344 1038.726562 408.546875 C 1039.34375 408.921875 1040.03125 409.140625 1040.71875 409.335938 C 1041.160156 412.964844 1044.449219 419.242188 1046.734375 420.863281 C 1047.585938 420.238281 1047.464844 419.363281 1047.0625 418.644531 C 1045.445312 415.753906 1044.257812 412.605469 1042.351562 409.859375 C 1047.507812 411.921875 1052.648438 413.941406 1056.570312 418.121094 C 1060.378906 422.183594 1064.914062 425.078125 1070.28125 426.636719 C 1070.714844 426.765625 1071.109375 426.945312 1071.53125 427.089844 C 1071.578125 427.265625 1071.628906 427.441406 1071.6875 427.605469 C 1072.539062 429.941406 1073.226562 432.324219 1073.785156 434.746094 C 1073.933594 435.390625 1074.445312 435.683594 1075.582031 435.621094 C 1076.164062 432.910156 1075.269531 430.558594 1074.335938 428.222656 C 1077.277344 429.636719 1079.859375 431.59375 1081.898438 434.375 C 1082.359375 435.011719 1082.777344 436.039062 1083.800781 435.308594 C 1084.78125 434.609375 1084.03125 433.832031 1083.628906 433.140625 C 1081.253906 429.046875 1077.699219 426.265625 1073.269531 424.96875 C 1071.648438 424.496094 1070.113281 423.90625 1068.640625 423.21875 C 1070.875 422.695312 1073.132812 422.261719 1075.355469 421.738281 C 1077.816406 421.160156 1080.632812 422.09375 1082.96875 419.988281 C 1082.691406 419.566406 1082.578125 419.222656 1082.4375 419.210938 C 1076.714844 418.695312 1071.238281 419.890625 1065.867188 421.707031 C 1065.851562 421.710938 1065.839844 421.722656 1065.828125 421.726562 C 1062.480469 419.769531 1059.457031 417.3125 1056.59375 414.53125 C 1055.445312 413.414062 1054.203125 412.480469 1052.902344 411.664062 C 1056.007812 412.019531 1059.179688 410.875 1062.300781 411.148438 C 1063.105469 411.214844 1063.835938 410.527344 1063.402344 409.296875 C 1059.160156 408.859375 1054.957031 409.355469 1050.730469 410.433594 C 1048.328125 409.214844 1045.769531 408.316406 1043.175781 407.503906 C 1045.320312 406.976562 1047.464844 406.441406 1049.601562 405.867188 C 1049.9375 406.367188 1050.644531 406.292969 1051.253906 406.304688 Z M 1102.316406 390.457031 C 1100.480469 390.539062 1098.652344 390.660156 1096.832031 390.816406 C 1100.824219 389.175781 1104.550781 386.925781 1107.871094 383.777344 C 1108.074219 383.582031 1108.292969 383.414062 1108.496094 383.222656 C 1112.230469 383.714844 1118.558594 383.453125 1120.867188 382.472656 C 1119.097656 381.347656 1114.953125 380.886719 1110.792969 381.199219 C 1113.691406 378.800781 1116.847656 376.824219 1120.378906 375.40625 C 1120.421875 375.410156 1120.449219 375.4375 1120.488281 375.4375 C 1125.054688 375.46875 1129.660156 375.953125 1134.332031 374.304688 C 1133.632812 372.5625 1132.53125 372.574219 1131.476562 372.808594 C 1129.515625 373.246094 1127.539062 373.300781 1125.5625 373.320312 C 1128.179688 372.039062 1130.539062 370.28125 1132.644531 368.183594 C 1133.320312 367.511719 1134.160156 366.710938 1133.164062 365.785156 C 1132.363281 365.042969 1131.621094 365.746094 1131.027344 366.34375 C 1128.007812 369.355469 1124.242188 371.097656 1120.316406 372.445312 C 1119.761719 372.636719 1119.25 372.886719 1118.714844 373.105469 C 1120.253906 371.007812 1121.707031 368.847656 1123.046875 366.609375 C 1123.394531 366.023438 1124.011719 365.367188 1123.136719 364.800781 C 1122.152344 364.167969 1121.632812 364.96875 1121.160156 365.660156 C 1119.304688 368.394531 1117.472656 371.148438 1115.601562 373.878906 C 1115.367188 374.222656 1115.109375 374.550781 1114.992188 374.894531 C 1112.277344 376.421875 1109.777344 378.273438 1107.472656 380.496094 C 1106.125 381.796875 1104.683594 382.953125 1103.199219 384.039062 C 1105.035156 380.820312 1106.855469 377.589844 1108.667969 374.355469 C 1108.953125 373.839844 1109.191406 373.296875 1109.449219 372.765625 C 1109.6875 372.277344 1109.59375 371.757812 1109.214844 371.476562 C 1108.644531 371.0625 1108.066406 371.308594 1107.699219 371.863281 C 1104.703125 376.417969 1102.105469 381.207031 1099.621094 386.058594 C 1099.554688 386.191406 1099.523438 386.3125 1099.488281 386.433594 C 1097.449219 387.589844 1095.324219 388.605469 1093.046875 389.375 C 1092.996094 389.390625 1092.945312 389.40625 1092.890625 389.421875 C 1093.910156 386.910156 1094.765625 384.34375 1095.578125 381.765625 C 1095.890625 380.777344 1095.433594 380.195312 1094.121094 379.867188 C 1093.839844 380.457031 1093.59375 380.867188 1093.4375 381.304688 C 1092.417969 384.203125 1091.429688 387.113281 1090.390625 390.007812 C 1090.371094 390.066406 1090.351562 390.128906 1090.328125 390.191406 C 1088.351562 390.773438 1086.359375 391.300781 1084.347656 391.75 C 1084.855469 390.453125 1085.375 389.15625 1085.796875 387.832031 C 1088.351562 379.808594 1093.105469 374.042969 1101.640625 372.054688 C 1104.390625 371.414062 1106.636719 369.882812 1108.496094 367.789062 C 1110.578125 365.445312 1113.175781 364.285156 1116.289062 363.996094 C 1120.667969 363.585938 1124.9375 362.753906 1128.960938 360.746094 C 1131.398438 359.527344 1134.144531 358.957031 1136.914062 359.21875 C 1141.039062 359.613281 1145.148438 360.171875 1149.523438 360.691406 C 1149.59375 362.59375 1148.554688 363.777344 1147.550781 364.9375 C 1145.910156 366.835938 1144.011719 368.460938 1141.980469 369.929688 C 1138.445312 372.480469 1135.5625 375.515625 1134.136719 379.804688 C 1132.847656 383.679688 1129.792969 385.292969 1125.910156 385.488281 C 1123.773438 385.597656 1121.625 385.460938 1119.492188 385.574219 C 1116.03125 385.761719 1112.820312 387.855469 1111.824219 390.414062 C 1108.667969 390.328125 1105.5 390.3125 1102.316406 390.457031 Z M 259.035156 419.15625 C 255.777344 418.601562 252.707031 419.234375 249.972656 421.285156 C 245.757812 424.4375 243.347656 428.652344 242.574219 433.804688 C 241.765625 439.175781 245.472656 443.460938 251.335938 443.507812 C 252.824219 443.765625 254.578125 443.152344 256.28125 442.207031 C 261.703125 439.195312 264.636719 434.433594 265.097656 428.414062 C 265.429688 424.089844 263.261719 419.871094 259.035156 419.15625 Z M 254.722656 422.464844 C 252.632812 426.90625 251.226562 431.585938 250.363281 436.398438 C 250.136719 437.667969 250.03125 439.007812 250.148438 440.335938 C 249.738281 440.296875 249.347656 440.21875 248.988281 440.082031 C 249.074219 437.203125 248.585938 434.378906 249.355469 431.589844 C 250.136719 428.765625 251.238281 426.128906 252.378906 423.421875 C 252.886719 423.128906 253.410156 422.875 253.949219 422.671875 C 254.210938 422.570312 254.464844 422.53125 254.722656 422.464844 Z M 248.488281 426.976562 C 248.433594 427.117188 248.386719 427.261719 248.332031 427.398438 C 246.816406 431.03125 246.308594 434.863281 246.691406 437.945312 C 246.195312 436.957031 245.90625 435.71875 245.921875 434.1875 C 245.945312 431.664062 246.925781 429.101562 248.488281 426.976562 Z M 252.402344 440.15625 C 252.390625 436.316406 253.589844 432.707031 254.675781 429.105469 C 255.375 426.789062 256.351562 424.550781 257.300781 422.3125 C 257.734375 422.382812 258.140625 422.503906 258.527344 422.675781 C 256.382812 427.523438 254.832031 432.5625 253.878906 437.789062 C 253.761719 438.414062 253.890625 439.082031 254.464844 439.351562 C 254.316406 439.425781 254.179688 439.523438 254.03125 439.59375 C 253.464844 439.84375 252.921875 440.023438 252.402344 440.15625 Z M 255.929688 438.464844 C 255.960938 438.351562 255.996094 438.246094 256.023438 438.128906 C 257.203125 433.355469 258.652344 428.664062 260.3125 424.035156 C 261.066406 424.960938 261.550781 426.1875 261.621094 427.683594 C 261.808594 431.546875 259.339844 436.011719 255.929688 438.464844 Z M 1182.410156 419.140625 C 1176.503906 418.398438 1173.1875 420.988281 1172.3125 426.921875 C 1172.054688 428.65625 1172.617188 430.246094 1172.984375 431.839844 C 1174.4375 438.144531 1180.542969 443.449219 1186.1875 443.503906 C 1191.0625 443.546875 1193.332031 441.789062 1194.546875 437.027344 C 1196.328125 430.027344 1189.550781 420.039062 1182.410156 419.140625 Z M 1188.613281 439.863281 C 1188.199219 440.078125 1187.757812 440.226562 1187.273438 440.292969 C 1187.378906 438.730469 1187.332031 437.214844 1187.03125 435.75 C 1186.152344 431.480469 1184.894531 427.300781 1183.152344 423.292969 C 1183.011719 422.976562 1182.832031 422.679688 1182.679688 422.371094 C 1183.128906 422.5 1183.585938 422.65625 1184.050781 422.898438 C 1184.300781 423.027344 1184.523438 423.175781 1184.765625 423.3125 C 1186.195312 426.078125 1187.273438 428.746094 1188.109375 431.554688 C 1188.929688 434.296875 1188.320312 437.132812 1188.613281 439.863281 Z M 1175.839844 428.160156 C 1175.847656 426.46875 1176.347656 425.070312 1177.152344 424.027344 C 1178.859375 428.59375 1180.222656 433.265625 1181.414062 437.992188 C 1181.453125 438.148438 1181.496094 438.304688 1181.539062 438.460938 C 1178.320312 436.101562 1175.832031 431.847656 1175.839844 428.160156 Z M 1182.992188 439.363281 C 1183.601562 439.050781 1183.644531 438.238281 1183.5625 437.234375 C 1182.539062 432.40625 1181 427.429688 1178.980469 422.585938 C 1179.355469 422.414062 1179.746094 422.292969 1180.164062 422.222656 C 1182.585938 427.976562 1184.714844 433.8125 1185.046875 440.136719 C 1184.660156 440.042969 1184.273438 439.953125 1183.863281 439.796875 C 1183.566406 439.683594 1183.28125 439.511719 1182.992188 439.363281 Z M 1190.699219 437.40625 C 1191.082031 433.664062 1190.246094 430.027344 1188.785156 426.460938 C 1190.503906 428.335938 1191.515625 430.433594 1191.554688 432.441406 C 1191.546875 434.542969 1191.226562 436.15625 1190.699219 437.40625 Z M 858.972656 364.929688 C 863.335938 361.734375 865.019531 357.195312 865.195312 352.394531 C 865.015625 350.648438 865.171875 349.359375 864.789062 348.050781 C 863.183594 342.554688 858.707031 340.949219 854.144531 344.316406 C 848.96875 348.140625 846.625 356.027344 848.90625 361.945312 C 850.671875 366.523438 854.988281 367.847656 858.972656 364.929688 Z M 854.847656 362.992188 C 853.066406 362.59375 852.308594 360.957031 851.832031 359.335938 C 851.570312 358.445312 851.582031 357.472656 851.46875 356.539062 C 851.5625 355.691406 851.6875 354.855469 851.847656 354.035156 C 853.726562 356.761719 855.339844 359.648438 857.21875 362.390625 C 856.539062 362.890625 855.769531 363.199219 854.847656 362.992188 Z M 856.570312 346.464844 C 857.992188 348.621094 859.390625 350.792969 860.8125 352.949219 C 861.101562 353.382812 861.300781 353.910156 861.660156 354.371094 C 861.554688 355.011719 861.402344 355.644531 861.207031 356.265625 C 859.5625 353.136719 857.542969 350.210938 855.210938 347.484375 C 855.523438 347.203125 855.851562 346.925781 856.21875 346.675781 C 856.34375 346.589844 856.453125 346.539062 856.570312 346.464844 Z M 861.65625 348.980469 C 861.730469 349.429688 861.773438 349.875 861.8125 350.320312 C 860.855469 348.632812 859.734375 347.09375 858.535156 345.617188 C 860.195312 345.3125 861.25 346.417969 861.65625 348.980469 Z M 853.640625 349.335938 C 855.890625 352.132812 857.742188 355.203125 859.691406 358.210938 C 859.828125 358.421875 859.980469 358.59375 860.144531 358.738281 C 859.730469 359.492188 859.257812 360.230469 858.683594 360.9375 C 858.613281 361.023438 858.535156 361.101562 858.460938 361.1875 C 858.089844 359.308594 856.800781 357.730469 855.816406 356.160156 C 854.929688 354.75 854.214844 352.785156 852.253906 352.355469 C 852.578125 351.277344 853.035156 350.265625 853.640625 349.335938 Z M 578.898438 365.265625 C 582.535156 367.714844 586.527344 366.464844 588.28125 362.417969 C 589.039062 360.667969 589.441406 358.804688 589.4375 357.464844 C 589.316406 351.378906 587.125 346.921875 582.550781 343.882812 C 578.476562 341.175781 574.605469 342.679688 572.953125 347.195312 C 572.140625 349.421875 572.175781 351.6875 572.40625 353.894531 C 572.902344 358.578125 574.902344 362.578125 578.898438 365.265625 Z M 577.300781 358.742188 C 577.613281 358.492188 577.847656 358.152344 578.066406 357.804688 C 579.882812 354.898438 581.671875 351.976562 583.847656 349.316406 C 584.484375 350.273438 584.941406 351.296875 585.253906 352.335938 C 582.054688 354.449219 580.503906 357.835938 578.945312 361.214844 C 578.339844 360.582031 577.792969 359.832031 577.402344 358.992188 C 577.363281 358.910156 577.339844 358.824219 577.300781 358.742188 Z M 582.703125 363.011719 C 582.078125 363.179688 581.253906 362.933594 580.417969 362.425781 C 581.988281 360.070312 584.460938 355.878906 585.554688 353.460938 C 585.734375 354.277344 585.847656 355.082031 585.914062 355.847656 C 585.898438 359.863281 584.523438 362.523438 582.703125 363.011719 Z M 582.28125 347.484375 C 579.9375 350.140625 577.972656 353.054688 576.3125 356.171875 C 576.113281 355.535156 575.9375 354.890625 575.8125 354.238281 C 577.523438 351.648438 579.210938 349.039062 580.910156 346.441406 C 581.417969 346.761719 581.867188 347.113281 582.28125 347.484375 Z M 578.851562 345.585938 C 577.601562 347.070312 576.550781 348.691406 575.636719 350.398438 C 575.683594 349.835938 575.703125 349.28125 575.828125 348.710938 C 576.339844 346.402344 577.316406 345.351562 578.851562 345.585938 Z M 758.203125 416.09375 C 758.203125 412.160156 758.203125 408.226562 758.203125 404.324219 C 759.507812 404.097656 759.914062 404.691406 760.101562 405.636719 C 760.734375 408.808594 760.042969 414.5625 758.203125 416.09375 Z M 758.203125 416.09375 "/></g></g></svg>